<svg xmlns="http://www.w3.org/2000/svg" xmlns:xlink="http://www.w3.org/1999/xlink" xmlns:lucid="lucid" width="1860" height="1051.5"><g transform="translate(118.19621907327485 99.48960266289822)" lucid:page-tab-id="0_0"><path d="M561.8 492v279.5" stroke="#000" stroke-width="2" fill="none"/><path d="M562.8 492.04h-2V491h2z"/><path d="M561.8 786.77l-4.63-14.26h9.27z" stroke="#000" stroke-width="2"/><path d="M486.47 271v500.5" stroke="#000" stroke-width="2" fill="none"/><path d="M487.47 271.04h-2V270h2z"/><path d="M486.47 786.77l-4.63-14.26h9.27z" stroke="#000" stroke-width="2"/><path d="M43.44 42.5v263H36V551" stroke="#000" stroke-width="2" fill="none"/><path d="M44.44 42.54h-2V41.5h2z"/><path d="M36 566.27L31.34 552h9.27z" stroke="#000" stroke-width="2"/><path d="M-98.2-79.5h380v120h-380z" stroke="#000" stroke-width="2" fill="#fff"/><path d="M-98.2-41.9h380" stroke="#000" stroke-width="2" fill="none"/><use xlink:href="#a" transform="matrix(1,0,0,1,-90.19621907327485,-71.48960266289822) translate(143.1 14.6)"/><use xlink:href="#b" transform="matrix(1,0,0,1,-86.19621907327485,-33.88960266289822) translate(0 26.299999999999997)"/><use xlink:href="#c" transform="matrix(1,0,0,1,-86.19621907327485,-33.88960266289822) translate(15.5 26.299999999999997)"/><use xlink:href="#d" transform="matrix(1,0,0,1,-86.19621907327485,-33.88960266289822) translate(73.4 26.299999999999997)"/><use xlink:href="#e" transform="matrix(1,0,0,1,-86.19621907327485,-33.88960266289822) translate(129.35000000000002 26.299999999999997)"/><use xlink:href="#b" transform="matrix(1,0,0,1,-86.19621907327485,-33.88960266289822) translate(0 47.9)"/><use xlink:href="#f" transform="matrix(1,0,0,1,-86.19621907327485,-33.88960266289822) translate(15.5 47.9)"/><use xlink:href="#g" transform="matrix(1,0,0,1,-86.19621907327485,-33.88960266289822) translate(126.45 47.9)"/><path d="M-98.2 245.5h380v120h-380z" stroke="#000" stroke-width="2" fill="#fff"/><path d="M-98.2 283.1h380" stroke="#000" stroke-width="2" fill="none"/><use xlink:href="#h" transform="matrix(1,0,0,1,-90.19621907327485,253.51039733710178) translate(127.625 14.6)"/><use xlink:href="#b" transform="matrix(1,0,0,1,-86.19621907327485,291.1103973371018) translate(0 26.299999999999997)"/><use xlink:href="#c" transform="matrix(1,0,0,1,-86.19621907327485,291.1103973371018) translate(15.5 26.299999999999997)"/><use xlink:href="#i" transform="matrix(1,0,0,1,-86.19621907327485,291.1103973371018) translate(73.4 26.299999999999997)"/><use xlink:href="#e" transform="matrix(1,0,0,1,-86.19621907327485,291.1103973371018) translate(192.10000000000002 26.299999999999997)"/><use xlink:href="#j" transform="matrix(1,0,0,1,-86.19621907327485,291.1103973371018) translate(0 47.9)"/><use xlink:href="#k" transform="matrix(1,0,0,1,-86.19621907327485,291.1103973371018) translate(5 47.9)"/><use xlink:href="#l" transform="matrix(1,0,0,1,-86.19621907327485,291.1103973371018) translate(20.5 47.9)"/><use xlink:href="#m" transform="matrix(1,0,0,1,-86.19621907327485,291.1103973371018) translate(105.35000000000001 47.9)"/><use xlink:href="#n" transform="matrix(1,0,0,1,-86.19621907327485,291.1103973371018) translate(179.85000000000002 47.9)"/><use xlink:href="#o" transform="matrix(1,0,0,1,-86.19621907327485,291.1103973371018) translate(275.20000000000005 47.9)"/><path d="M-98.2 570.5h380v120h-380z" stroke="#000" stroke-width="2" fill="#fff"/><path d="M-98.2 608.1h380" stroke="#000" stroke-width="2" fill="none"/><use xlink:href="#h" transform="matrix(1,0,0,1,-90.19621907327485,578.5103973371017) translate(127.625 14.6)"/><use xlink:href="#b" transform="matrix(1,0,0,1,-86.19621907327485,616.1103973371017) translate(0 26.299999999999997)"/><use xlink:href="#c" transform="matrix(1,0,0,1,-86.19621907327485,616.1103973371017) translate(15.5 26.299999999999997)"/><use xlink:href="#p" transform="matrix(1,0,0,1,-86.19621907327485,616.1103973371017) translate(73.4 26.299999999999997)"/><use xlink:href="#q" transform="matrix(1,0,0,1,-86.19621907327485,616.1103973371017) translate(100.30000000000001 26.299999999999997)"/><use xlink:href="#b" transform="matrix(1,0,0,1,-86.19621907327485,616.1103973371017) translate(0 47.9)"/><use xlink:href="#l" transform="matrix(1,0,0,1,-86.19621907327485,616.1103973371017) translate(15.5 47.9)"/><use xlink:href="#r" transform="matrix(1,0,0,1,-86.19621907327485,616.1103973371017) translate(100.35000000000001 47.9)"/><use xlink:href="#n" transform="matrix(1,0,0,1,-86.19621907327485,616.1103973371017) translate(183.85000000000002 47.9)"/><use xlink:href="#o" transform="matrix(1,0,0,1,-86.19621907327485,616.1103973371017) translate(279.20000000000005 47.9)"/><path d="M361.8 570h400v141h-400z" stroke="#000" stroke-width="2" fill="#fff"/><path d="M361.8 607.6h400" stroke="#000" stroke-width="2" fill="none"/><use xlink:href="#s" transform="matrix(1,0,0,1,369.80378092672515,578.0103973371017) translate(111.675 14.6)"/><use xlink:href="#t" transform="matrix(1,0,0,1,369.80378092672515,578.0103973371017) translate(203.375 14.6)"/><use xlink:href="#b" transform="matrix(1,0,0,1,373.80378092672515,615.6103973371017) translate(0 26)"/><use xlink:href="#c" transform="matrix(1,0,0,1,373.80378092672515,615.6103973371017) translate(15.5 26)"/><use xlink:href="#u" transform="matrix(1,0,0,1,373.80378092672515,615.6103973371017) translate(73.4 26)"/><use xlink:href="#v" transform="matrix(1,0,0,1,373.80378092672515,615.6103973371017) translate(115.35000000000001 26)"/><use xlink:href="#b" transform="matrix(1,0,0,1,373.80378092672515,615.6103973371017) translate(0 47.6)"/><use xlink:href="#w" transform="matrix(1,0,0,1,373.80378092672515,615.6103973371017) translate(15.5 47.6)"/><use xlink:href="#x" transform="matrix(1,0,0,1,373.80378092672515,615.6103973371017) translate(70.1 47.6)"/><use xlink:href="#b" transform="matrix(1,0,0,1,373.80378092672515,615.6103973371017) translate(0 69.2)"/><use xlink:href="#y" transform="matrix(1,0,0,1,373.80378092672515,615.6103973371017) translate(15.5 69.2)"/><use xlink:href="#z" transform="matrix(1,0,0,1,373.80378092672515,615.6103973371017) translate(58.45 69.2)"/><use xlink:href="#A" transform="matrix(1,0,0,1,373.80378092672515,615.6103973371017) translate(125.4 69.2)"/><use xlink:href="#B" transform="matrix(1,0,0,1,373.80378092672515,615.6103973371017) translate(178.85000000000002 69.2)"/><path d="M361.8 791h400v141h-400z" stroke="#000" stroke-width="2" fill="#fff"/><path d="M361.8 828.6h400" stroke="#000" stroke-width="2" fill="none"/><use xlink:href="#C" transform="matrix(1,0,0,1,369.80378092672515,799.0103973371017) translate(139.6 14.6)"/><use xlink:href="#D" transform="matrix(1,0,0,1,369.80378092672515,799.0103973371017) translate(183.5 14.6)"/><use xlink:href="#b" transform="matrix(1,0,0,1,373.80378092672515,836.6103973371017) translate(0 26)"/><use xlink:href="#E" transform="matrix(1,0,0,1,373.80378092672515,836.6103973371017) translate(15.5 26)"/><use xlink:href="#F" transform="matrix(1,0,0,1,373.80378092672515,836.6103973371017) translate(98.4 26)"/><use xlink:href="#b" transform="matrix(1,0,0,1,373.80378092672515,836.6103973371017) translate(0 47.6)"/><use xlink:href="#G" transform="matrix(1,0,0,1,373.80378092672515,836.6103973371017) translate(15.5 47.6)"/><use xlink:href="#H" transform="matrix(1,0,0,1,373.80378092672515,836.6103973371017) translate(84.4 47.6)"/><use xlink:href="#I" transform="matrix(1,0,0,1,373.80378092672515,836.6103973371017) translate(112.35000000000001 47.6)"/><use xlink:href="#b" transform="matrix(1,0,0,1,373.80378092672515,836.6103973371017) translate(0 69.2)"/><use xlink:href="#J" transform="matrix(1,0,0,1,373.80378092672515,836.6103973371017) translate(15.5 69.2)"/><use xlink:href="#K" transform="matrix(1,0,0,1,373.80378092672515,836.6103973371017) translate(69.45 69.2)"/><use xlink:href="#L" transform="matrix(1,0,0,1,373.80378092672515,836.6103973371017) translate(139.4 69.2)"/><use xlink:href="#u" transform="matrix(1,0,0,1,373.80378092672515,836.6103973371017) translate(213.2 69.2)"/><use xlink:href="#M" transform="matrix(1,0,0,1,373.80378092672515,836.6103973371017) translate(255.14999999999998 69.2)"/><path d="M283.8 630.5h59.5" stroke="#000" stroke-width="2" fill="none"/><path d="M283.83 631.5h-1.03v-2h1.03z"/><path d="M358.57 630.5l-14.27 4.65v-9.27z" stroke="#000" stroke-width="2"/><path d="M283.8 305.5h18v-107h40.5" stroke="#000" stroke-width="2" fill="none"/><path d="M283.83 306.5h-1.03v-2h1.03z"/><path d="M357.57 198.5l-14.27 4.65v-9.27z" stroke="#000" stroke-width="2"/><path d="M283.8 305.5h18v125.82h40.5" stroke="#000" stroke-width="2" fill="none"/><path d="M283.83 306.5h-1.03v-2h1.03z"/><path d="M357.57 431.32l-14.27 4.64v-9.27z" stroke="#000" stroke-width="2"/><path d="M841.8 128h400v206h-400z" stroke="#000" stroke-width="2" fill="#fff"/><path d="M841.8 165.6h400" stroke="#000" stroke-width="2" fill="none"/><use xlink:href="#N" transform="matrix(1,0,0,1,849.8037809267252,136.01039733710178) translate(168.525 14.6)"/><use xlink:href="#b" transform="matrix(1,0,0,1,853.8037809267252,173.61039733710177) translate(0 26.1)"/><use xlink:href="#O" transform="matrix(1,0,0,1,853.8037809267252,173.61039733710177) translate(15.5 26.1)"/><use xlink:href="#P" transform="matrix(1,0,0,1,853.8037809267252,173.61039733710177) translate(100.4 26.1)"/><use xlink:href="#Q" transform="matrix(1,0,0,1,853.8037809267252,173.61039733710177) translate(150 26.1)"/><use xlink:href="#R" transform="matrix(1,0,0,1,853.8037809267252,173.61039733710177) translate(217.95 26.1)"/><use xlink:href="#b" transform="matrix(1,0,0,1,853.8037809267252,173.61039733710177) translate(0 47.7)"/><use xlink:href="#S" transform="matrix(1,0,0,1,853.8037809267252,173.61039733710177) translate(15.5 47.7)"/><use xlink:href="#b" transform="matrix(1,0,0,1,853.8037809267252,173.61039733710177) translate(0 69.30000000000001)"/><use xlink:href="#y" transform="matrix(1,0,0,1,853.8037809267252,173.61039733710177) translate(15.5 69.30000000000001)"/><use xlink:href="#T" transform="matrix(1,0,0,1,853.8037809267252,173.61039733710177) translate(58.45 69.30000000000001)"/><use xlink:href="#U" transform="matrix(1,0,0,1,853.8037809267252,173.61039733710177) translate(107.4 69.30000000000001)"/><use xlink:href="#b" transform="matrix(1,0,0,1,853.8037809267252,173.61039733710177) translate(0 90.90000000000002)"/><use xlink:href="#V" transform="matrix(1,0,0,1,853.8037809267252,173.61039733710177) translate(15.5 90.90000000000002)"/><use xlink:href="#W" transform="matrix(1,0,0,1,853.8037809267252,173.61039733710177) translate(57.400000000000006 90.90000000000002)"/><use xlink:href="#X" transform="matrix(1,0,0,1,853.8037809267252,173.61039733710177) translate(78.4 90.90000000000002)"/><use xlink:href="#b" transform="matrix(1,0,0,1,853.8037809267252,173.61039733710177) translate(0 112.50000000000001)"/><use xlink:href="#Y" transform="matrix(1,0,0,1,853.8037809267252,173.61039733710177) translate(15.5 112.50000000000001)"/><use xlink:href="#Z" transform="matrix(1,0,0,1,853.8037809267252,173.61039733710177) translate(75.4 112.50000000000001)"/><use xlink:href="#aa" transform="matrix(1,0,0,1,853.8037809267252,173.61039733710177) translate(147.3 112.50000000000001)"/><use xlink:href="#ab" transform="matrix(1,0,0,1,853.8037809267252,173.61039733710177) translate(217.70000000000002 112.50000000000001)"/><use xlink:href="#b" transform="matrix(1,0,0,1,853.8037809267252,173.61039733710177) translate(0 134.1)"/><use xlink:href="#ac" transform="matrix(1,0,0,1,853.8037809267252,173.61039733710177) translate(15.5 134.1)"/><use xlink:href="#ad" transform="matrix(1,0,0,1,853.8037809267252,173.61039733710177) translate(94.30000000000001 134.1)"/><use xlink:href="#ae" transform="matrix(1,0,0,1,853.8037809267252,173.61039733710177) translate(171.20000000000002 134.1)"/><use xlink:href="#af" transform="matrix(1,0,0,1,853.8037809267252,173.61039733710177) translate(260.5 134.1)"/><path d="M841.8 349h400v206h-400z" stroke="#000" stroke-width="2" fill="#fff"/><path d="M841.8 386.6h400" stroke="#000" stroke-width="2" fill="none"/><g><use xlink:href="#N" transform="matrix(1,0,0,1,849.8037809267252,357.0103973371018) translate(168.525 14.6)"/></g><g><use xlink:href="#b" transform="matrix(1,0,0,1,853.8037809267252,394.6103973371018) translate(0 26.1)"/><use xlink:href="#O" transform="matrix(1,0,0,1,853.8037809267252,394.6103973371018) translate(15.5 26.1)"/><use xlink:href="#P" transform="matrix(1,0,0,1,853.8037809267252,394.6103973371018) translate(100.4 26.1)"/><use xlink:href="#ag" transform="matrix(1,0,0,1,853.8037809267252,394.6103973371018) translate(150 26.1)"/><use xlink:href="#ah" transform="matrix(1,0,0,1,853.8037809267252,394.6103973371018) translate(212.95 26.1)"/><use xlink:href="#b" transform="matrix(1,0,0,1,853.8037809267252,394.6103973371018) translate(0 47.7)"/><use xlink:href="#ai" transform="matrix(1,0,0,1,853.8037809267252,394.6103973371018) translate(15.5 47.7)"/><use xlink:href="#b" transform="matrix(1,0,0,1,853.8037809267252,394.6103973371018) translate(0 69.30000000000001)"/><use xlink:href="#y" transform="matrix(1,0,0,1,853.8037809267252,394.6103973371018) translate(15.5 69.30000000000001)"/><use xlink:href="#T" transform="matrix(1,0,0,1,853.8037809267252,394.6103973371018) translate(58.45 69.30000000000001)"/><use xlink:href="#U" transform="matrix(1,0,0,1,853.8037809267252,394.6103973371018) translate(107.4 69.30000000000001)"/><use xlink:href="#b" transform="matrix(1,0,0,1,853.8037809267252,394.6103973371018) translate(0 90.90000000000002)"/><use xlink:href="#V" transform="matrix(1,0,0,1,853.8037809267252,394.6103973371018) translate(15.5 90.90000000000002)"/><use xlink:href="#aj" transform="matrix(1,0,0,1,853.8037809267252,394.6103973371018) translate(57.400000000000006 90.90000000000002)"/><use xlink:href="#ak" transform="matrix(1,0,0,1,853.8037809267252,394.6103973371018) translate(130.3 90.90000000000002)"/><use xlink:href="#b" transform="matrix(1,0,0,1,853.8037809267252,394.6103973371018) translate(0 112.50000000000001)"/><use xlink:href="#Y" transform="matrix(1,0,0,1,853.8037809267252,394.6103973371018) translate(15.5 112.50000000000001)"/><use xlink:href="#Z" transform="matrix(1,0,0,1,853.8037809267252,394.6103973371018) translate(75.4 112.50000000000001)"/><use xlink:href="#aa" transform="matrix(1,0,0,1,853.8037809267252,394.6103973371018) translate(147.3 112.50000000000001)"/><use xlink:href="#ab" transform="matrix(1,0,0,1,853.8037809267252,394.6103973371018) translate(217.70000000000002 112.50000000000001)"/><use xlink:href="#b" transform="matrix(1,0,0,1,853.8037809267252,394.6103973371018) translate(0 134.1)"/><use xlink:href="#ac" transform="matrix(1,0,0,1,853.8037809267252,394.6103973371018) translate(15.5 134.1)"/><use xlink:href="#ad" transform="matrix(1,0,0,1,853.8037809267252,394.6103973371018) translate(94.30000000000001 134.1)"/><use xlink:href="#ae" transform="matrix(1,0,0,1,853.8037809267252,394.6103973371018) translate(171.20000000000002 134.1)"/><use xlink:href="#af" transform="matrix(1,0,0,1,853.8037809267252,394.6103973371018) translate(260.5 134.1)"/></g><path d="M841.8 570h400v206h-400z" stroke="#000" stroke-width="2" fill="#fff"/><path d="M841.8 607.6h400" stroke="#000" stroke-width="2" fill="none"/><g><use xlink:href="#N" transform="matrix(1,0,0,1,849.8037809267252,578.0103973371017) translate(168.525 14.6)"/></g><g><use xlink:href="#b" transform="matrix(1,0,0,1,853.8037809267252,615.6103973371017) translate(0 26.1)"/><use xlink:href="#O" transform="matrix(1,0,0,1,853.8037809267252,615.6103973371017) translate(15.5 26.1)"/><use xlink:href="#P" transform="matrix(1,0,0,1,853.8037809267252,615.6103973371017) translate(100.4 26.1)"/><use xlink:href="#ag" transform="matrix(1,0,0,1,853.8037809267252,615.6103973371017) translate(150 26.1)"/><use xlink:href="#al" transform="matrix(1,0,0,1,853.8037809267252,615.6103973371017) translate(212.95 26.1)"/><use xlink:href="#b" transform="matrix(1,0,0,1,853.8037809267252,615.6103973371017) translate(0 47.7)"/><use xlink:href="#S" transform="matrix(1,0,0,1,853.8037809267252,615.6103973371017) translate(15.5 47.7)"/><use xlink:href="#b" transform="matrix(1,0,0,1,853.8037809267252,615.6103973371017) translate(0 69.30000000000001)"/><use xlink:href="#y" transform="matrix(1,0,0,1,853.8037809267252,615.6103973371017) translate(15.5 69.30000000000001)"/><use xlink:href="#T" transform="matrix(1,0,0,1,853.8037809267252,615.6103973371017) translate(58.45 69.30000000000001)"/><use xlink:href="#U" transform="matrix(1,0,0,1,853.8037809267252,615.6103973371017) translate(107.4 69.30000000000001)"/><use xlink:href="#b" transform="matrix(1,0,0,1,853.8037809267252,615.6103973371017) translate(0 90.90000000000002)"/><use xlink:href="#V" transform="matrix(1,0,0,1,853.8037809267252,615.6103973371017) translate(15.5 90.90000000000002)"/><use xlink:href="#am" transform="matrix(1,0,0,1,853.8037809267252,615.6103973371017) translate(57.400000000000006 90.90000000000002)"/><use xlink:href="#an" transform="matrix(1,0,0,1,853.8037809267252,615.6103973371017) translate(104.35000000000001 90.90000000000002)"/><use xlink:href="#ao" transform="matrix(1,0,0,1,853.8037809267252,615.6103973371017) translate(137.3 90.90000000000002)"/><use xlink:href="#b" transform="matrix(1,0,0,1,853.8037809267252,615.6103973371017) translate(0 112.50000000000001)"/><use xlink:href="#Y" transform="matrix(1,0,0,1,853.8037809267252,615.6103973371017) translate(15.5 112.50000000000001)"/><use xlink:href="#Z" transform="matrix(1,0,0,1,853.8037809267252,615.6103973371017) translate(75.4 112.50000000000001)"/><use xlink:href="#aa" transform="matrix(1,0,0,1,853.8037809267252,615.6103973371017) translate(147.3 112.50000000000001)"/><use xlink:href="#ab" transform="matrix(1,0,0,1,853.8037809267252,615.6103973371017) translate(217.70000000000002 112.50000000000001)"/><use xlink:href="#b" transform="matrix(1,0,0,1,853.8037809267252,615.6103973371017) translate(0 134.1)"/><use xlink:href="#ac" transform="matrix(1,0,0,1,853.8037809267252,615.6103973371017) translate(15.5 134.1)"/><use xlink:href="#ad" transform="matrix(1,0,0,1,853.8037809267252,615.6103973371017) translate(94.30000000000001 134.1)"/><use xlink:href="#ae" transform="matrix(1,0,0,1,853.8037809267252,615.6103973371017) translate(171.20000000000002 134.1)"/><use xlink:href="#af" transform="matrix(1,0,0,1,853.8037809267252,615.6103973371017) translate(260.5 134.1)"/></g><path d="M1321.8 128h400v160h-400z" stroke="#000" stroke-width="2" fill="#fff"/><path d="M1321.8 165.6h400" stroke="#000" stroke-width="2" fill="none"/><g><use xlink:href="#ap" transform="matrix(1,0,0,1,1329.8037809267253,136.01039733710178) translate(112.4 14.6)"/><use xlink:href="#aq" transform="matrix(1,0,0,1,1329.8037809267253,136.01039733710178) translate(196.9 14.6)"/></g><g><use xlink:href="#b" transform="matrix(1,0,0,1,1333.8037809267253,173.61039733710177) translate(0 24.69999999999999)"/><use xlink:href="#ar" transform="matrix(1,0,0,1,1333.8037809267253,173.61039733710177) translate(15.5 24.69999999999999)"/><use xlink:href="#as" transform="matrix(1,0,0,1,1333.8037809267253,173.61039733710177) translate(99.4 24.69999999999999)"/><use xlink:href="#at" transform="matrix(1,0,0,1,1333.8037809267253,173.61039733710177) translate(148.60000000000002 24.69999999999999)"/><use xlink:href="#au" transform="matrix(1,0,0,1,1333.8037809267253,173.61039733710177) translate(163.60000000000002 24.69999999999999)"/><use xlink:href="#b" transform="matrix(1,0,0,1,1333.8037809267253,173.61039733710177) translate(0 46.29999999999999)"/><use xlink:href="#av" transform="matrix(1,0,0,1,1333.8037809267253,173.61039733710177) translate(15.5 46.29999999999999)"/><use xlink:href="#aw" transform="matrix(1,0,0,1,1333.8037809267253,173.61039733710177) translate(126.60000000000001 46.29999999999999)"/><use xlink:href="#ax" transform="matrix(1,0,0,1,1333.8037809267253,173.61039733710177) translate(200.5 46.29999999999999)"/><use xlink:href="#ay" transform="matrix(1,0,0,1,1333.8037809267253,173.61039733710177) translate(302.25 46.29999999999999)"/><use xlink:href="#az" transform="matrix(1,0,0,1,1333.8037809267253,173.61039733710177) translate(0 67.89999999999999)"/><use xlink:href="#at" transform="matrix(1,0,0,1,1333.8037809267253,173.61039733710177) translate(72.95 67.89999999999999)"/><use xlink:href="#aA" transform="matrix(1,0,0,1,1333.8037809267253,173.61039733710177) translate(87.95 67.89999999999999)"/><use xlink:href="#aB" transform="matrix(1,0,0,1,1333.8037809267253,173.61039733710177) translate(122.95 67.89999999999999)"/><use xlink:href="#aC" transform="matrix(1,0,0,1,1333.8037809267253,173.61039733710177) translate(147.95 67.89999999999999)"/><use xlink:href="#aD" transform="matrix(1,0,0,1,1333.8037809267253,173.61039733710177) translate(215.85 67.89999999999999)"/><use xlink:href="#aE" transform="matrix(1,0,0,1,1333.8037809267253,173.61039733710177) translate(305.85 67.89999999999999)"/><use xlink:href="#aF" transform="matrix(1,0,0,1,1333.8037809267253,173.61039733710177) translate(0 89.5)"/><use xlink:href="#aG" transform="matrix(1,0,0,1,1333.8037809267253,173.61039733710177) translate(53.900000000000006 89.5)"/></g><path d="M1321.8 349h400v98h-400z" stroke="#000" stroke-width="2" fill="#fff"/><path d="M1321.8 386.6h400" stroke="#000" stroke-width="2" fill="none"/><g><use xlink:href="#aH" transform="matrix(1,0,0,1,1329.8037809267253,357.0103973371018) translate(122.69999999999999 14.6)"/><use xlink:href="#aq" transform="matrix(1,0,0,1,1329.8037809267253,357.0103973371018) translate(186.6 14.6)"/></g><g><use xlink:href="#b" transform="matrix(1,0,0,1,1333.8037809267253,394.6103973371018) translate(0 26.1)"/><use xlink:href="#av" transform="matrix(1,0,0,1,1333.8037809267253,394.6103973371018) translate(15.5 26.1)"/><use xlink:href="#ag" transform="matrix(1,0,0,1,1333.8037809267253,394.6103973371018) translate(126.60000000000001 26.1)"/><use xlink:href="#aI" transform="matrix(1,0,0,1,1333.8037809267253,394.6103973371018) translate(189.55 26.1)"/><use xlink:href="#aJ" transform="matrix(1,0,0,1,1333.8037809267253,394.6103973371018) translate(214.55 26.1)"/></g><path d="M91.8 42.5V226" stroke="#000" stroke-width="2" fill="none"/><path d="M92.8 42.54h-2V41.5h2z"/><path d="M91.8 241.27L87.17 227h9.27z" stroke="#000" stroke-width="2"/><path d="M635.9 713v58.5" stroke="#000" stroke-width="2" fill="none"/><path d="M636.9 713.04h-2V712h2z"/><path d="M635.9 786.77l-4.64-14.26h9.27z" stroke="#000" stroke-width="2"/><path d="M361.8 128h400v141h-400z" stroke="#000" stroke-width="2" fill="#fff"/><path d="M361.8 165.6h400" stroke="#000" stroke-width="2" fill="none"/><g><use xlink:href="#s" transform="matrix(1,0,0,1,369.80378092672515,136.01039733710178) translate(111.675 14.6)"/><use xlink:href="#t" transform="matrix(1,0,0,1,369.80378092672515,136.01039733710178) translate(203.375 14.6)"/></g><g><use xlink:href="#b" transform="matrix(1,0,0,1,373.80378092672515,173.61039733710177) translate(0 26)"/><use xlink:href="#c" transform="matrix(1,0,0,1,373.80378092672515,173.61039733710177) translate(15.5 26)"/><use xlink:href="#aK" transform="matrix(1,0,0,1,373.80378092672515,173.61039733710177) translate(73.4 26)"/><use xlink:href="#b" transform="matrix(1,0,0,1,373.80378092672515,173.61039733710177) translate(0 47.6)"/><use xlink:href="#w" transform="matrix(1,0,0,1,373.80378092672515,173.61039733710177) translate(15.5 47.6)"/><use xlink:href="#x" transform="matrix(1,0,0,1,373.80378092672515,173.61039733710177) translate(70.1 47.6)"/><use xlink:href="#b" transform="matrix(1,0,0,1,373.80378092672515,173.61039733710177) translate(0 69.2)"/><use xlink:href="#y" transform="matrix(1,0,0,1,373.80378092672515,173.61039733710177) translate(15.5 69.2)"/><use xlink:href="#z" transform="matrix(1,0,0,1,373.80378092672515,173.61039733710177) translate(58.45 69.2)"/><use xlink:href="#A" transform="matrix(1,0,0,1,373.80378092672515,173.61039733710177) translate(125.4 69.2)"/><use xlink:href="#B" transform="matrix(1,0,0,1,373.80378092672515,173.61039733710177) translate(178.85000000000002 69.2)"/></g><path d="M361.8 349h400v141h-400z" stroke="#000" stroke-width="2" fill="#fff"/><path d="M361.8 386.6h400" stroke="#000" stroke-width="2" fill="none"/><g><use xlink:href="#s" transform="matrix(1,0,0,1,369.80378092672515,357.0103973371018) translate(111.675 14.6)"/><use xlink:href="#t" transform="matrix(1,0,0,1,369.80378092672515,357.0103973371018) translate(203.375 14.6)"/></g><g><use xlink:href="#b" transform="matrix(1,0,0,1,373.80378092672515,394.6103973371018) translate(0 26)"/><use xlink:href="#c" transform="matrix(1,0,0,1,373.80378092672515,394.6103973371018) translate(15.5 26)"/><use xlink:href="#aL" transform="matrix(1,0,0,1,373.80378092672515,394.6103973371018) translate(73.4 26)"/><use xlink:href="#b" transform="matrix(1,0,0,1,373.80378092672515,394.6103973371018) translate(0 47.6)"/><use xlink:href="#w" transform="matrix(1,0,0,1,373.80378092672515,394.6103973371018) translate(15.5 47.6)"/><use xlink:href="#x" transform="matrix(1,0,0,1,373.80378092672515,394.6103973371018) translate(70.1 47.6)"/><use xlink:href="#b" transform="matrix(1,0,0,1,373.80378092672515,394.6103973371018) translate(0 69.2)"/><use xlink:href="#y" transform="matrix(1,0,0,1,373.80378092672515,394.6103973371018) translate(15.5 69.2)"/><use xlink:href="#z" transform="matrix(1,0,0,1,373.80378092672515,394.6103973371018) translate(58.45 69.2)"/><use xlink:href="#A" transform="matrix(1,0,0,1,373.80378092672515,394.6103973371018) translate(125.4 69.2)"/><use xlink:href="#B" transform="matrix(1,0,0,1,373.80378092672515,394.6103973371018) translate(178.85000000000002 69.2)"/></g><path d="M763.8 640.5h59.5" stroke="#000" stroke-width="2" fill="none"/><path d="M763.83 641.5h-1.03v-2h1.03z"/><path d="M838.57 640.5l-14.27 4.65v-9.27z" stroke="#000" stroke-width="2"/><path d="M763.8 419.5h58.5" stroke="#000" stroke-width="2" fill="none"/><path d="M763.83 420.5h-1.03v-2h1.03z"/><path d="M837.57 419.5l-14.27 4.65v-9.27z" stroke="#000" stroke-width="2"/><path d="M763.8 198.5h58.5" stroke="#000" stroke-width="2" fill="none"/><path d="M763.83 199.5h-1.03v-2h1.03z"/><path d="M837.57 198.5l-14.27 4.65v-9.27z" stroke="#000" stroke-width="2"/><path d="M1243.8 398h58.5" stroke="#000" stroke-width="2" fill="none"/><path d="M1243.83 399h-1.03v-2h1.03z"/><path d="M1317.57 398l-14.27 4.65v-9.27z" stroke="#000" stroke-width="2"/><path d="M1243.8 208h58.5" stroke="#000" stroke-width="2" fill="none"/><path d="M1243.83 209h-1.03v-2h1.03z"/><path d="M1317.57 208l-14.27 4.65v-9.27z" stroke="#000" stroke-width="2"/><path d="M1243.8 673h37.98V209" stroke="#000" stroke-width="2" fill="none"/><path d="M1243.83 674h-1.03v-2h1.03z"/><path d="M1281.78 209.04V208" stroke="#000" stroke-width="2" fill="none"/><defs><path d="M67-125c0 53 21 87 73 88 37 1 54-22 65-47l45 17C233-25 199 4 140 4 58 4 20-42 15-125 8-235 124-281 211-232c18 10 29 29 36 50l-46 12c-8-25-30-41-62-41-52 0-71 34-72 86" id="aM"/><path d="M133-34C117-15 103 5 69 4 32 3 11-16 11-54c-1-60 55-63 116-61 1-26-3-47-28-47-18 1-26 9-28 27l-52-2c7-38 36-58 82-57s74 22 75 68l1 82c-1 14 12 18 25 15v27c-30 8-71 5-69-32zm-48 3c29 0 43-24 42-57-32 0-66-3-65 30 0 17 8 27 23 27" id="aN"/><path d="M115-3C79 11 28 4 28-45v-112H4v-33h27l15-45h31v45h36v33H77v99c-1 23 16 31 38 25v30" id="aO"/><path d="M185-48c-13 30-37 53-82 52C43 2 14-33 14-96s30-98 90-98c62 0 83 45 84 108H66c0 31 8 55 39 56 18 0 30-7 34-22zm-45-69c5-46-57-63-70-21-2 6-4 13-4 21h74" id="aP"/><path d="M195-6C206 82 75 100 31 46c-4-6-6-13-8-21l49-6c3 16 16 24 34 25 40 0 42-37 40-79-11 22-30 35-61 35-53 0-70-43-70-97 0-56 18-96 73-97 30 0 46 14 59 34l2-30h47zm-90-29c32 0 41-27 41-63 0-35-9-62-40-62-32 0-39 29-40 63 0 36 9 62 39 62" id="aQ"/><path d="M110-194c64 0 96 36 96 99 0 64-35 99-97 99-61 0-95-36-95-99 0-62 34-99 96-99zm-1 164c35 0 45-28 45-65 0-40-10-65-43-65-34 0-45 26-45 65 0 36 10 65 43 65" id="aR"/><path d="M135-150c-39-12-60 13-60 57V0H25l-1-190h47c2 13-1 29 3 40 6-28 27-53 61-41v41" id="aS"/><path d="M123 10C108 53 80 86 19 72V37c35 8 53-11 59-39L3-190h52l48 148c12-52 28-100 44-148h51" id="aT"/><g id="a"><use transform="matrix(0.05,0,0,0.05,0,0)" xlink:href="#aM"/><use transform="matrix(0.05,0,0,0.05,12.950000000000001,0)" xlink:href="#aN"/><use transform="matrix(0.05,0,0,0.05,22.950000000000003,0)" xlink:href="#aO"/><use transform="matrix(0.05,0,0,0.05,28.900000000000002,0)" xlink:href="#aP"/><use transform="matrix(0.05,0,0,0.05,38.900000000000006,0)" xlink:href="#aQ"/><use transform="matrix(0.05,0,0,0.05,49.85000000000001,0)" xlink:href="#aR"/><use transform="matrix(0.05,0,0,0.05,60.80000000000001,0)" xlink:href="#aS"/><use transform="matrix(0.05,0,0,0.05,67.80000000000001,0)" xlink:href="#aT"/></g><path d="M118-107v75H92v-75H18v-26h74v-75h26v75h74v26h-74" id="aU"/><use transform="matrix(0.05,0,0,0.05,0,0)" xlink:href="#aU" id="b"/><path d="M190 0L58-211 59 0H30v-248h39L202-35l-2-213h31V0h-41" id="aV"/><path d="M141-36C126-15 110 5 73 4 37 3 15-17 15-53c-1-64 63-63 125-63 3-35-9-54-41-54-24 1-41 7-42 31l-33-3c5-37 33-52 76-52 45 0 72 20 72 64v82c-1 20 7 32 28 27v20c-31 9-61-2-59-35zM48-53c0 20 12 33 32 33 41-3 63-29 60-74-43 2-92-5-92 41" id="aW"/><path d="M210-169c-67 3-38 105-44 169h-31v-121c0-29-5-50-35-48C34-165 62-65 56 0H25l-1-190h30c1 10-1 24 2 32 10-44 99-50 107 0 11-21 27-35 58-36 85-2 47 119 55 194h-31v-121c0-29-5-49-35-48" id="aX"/><path d="M100-194c63 0 86 42 84 106H49c0 40 14 67 53 68 26 1 43-12 49-29l28 8c-11 28-37 45-77 45C44 4 14-33 15-96c1-61 26-98 85-98zm52 81c6-60-76-77-97-28-3 7-6 17-6 28h103" id="aY"/><path d="M33-154v-36h34v36H33zM33 0v-36h34V0H33" id="aZ"/><g id="c"><use transform="matrix(0.05,0,0,0.05,0,0)" xlink:href="#aV"/><use transform="matrix(0.05,0,0,0.05,12.950000000000001,0)" xlink:href="#aW"/><use transform="matrix(0.05,0,0,0.05,22.950000000000003,0)" xlink:href="#aX"/><use transform="matrix(0.05,0,0,0.05,37.900000000000006,0)" xlink:href="#aY"/><use transform="matrix(0.05,0,0,0.05,47.900000000000006,0)" xlink:href="#aZ"/></g><path d="M33 0v-248h34V0H33" id="ba"/><path d="M117-194c89-4 53 116 60 194h-32v-121c0-31-8-49-39-48C34-167 62-67 57 0H25l-1-190h30c1 10-1 24 2 32 11-22 29-35 61-36" id="bb"/><path d="M85-194c31 0 48 13 60 33l-1-100h32l1 261h-30c-2-10 0-23-3-31C134-8 116 4 85 4 32 4 16-35 15-94c0-66 23-100 70-100zm9 24c-40 0-46 34-46 75 0 40 6 74 45 74 42 0 51-32 51-76 0-42-9-74-50-73" id="bc"/><path d="M100-194c62-1 85 37 85 99 1 63-27 99-86 99S16-35 15-95c0-66 28-99 85-99zM99-20c44 1 53-31 53-75 0-43-8-75-51-75s-53 32-53 75 10 74 51 75" id="bd"/><path d="M114-163C36-179 61-72 57 0H25l-1-190h30c1 12-1 29 2 39 6-27 23-49 58-41v29" id="be"/><g id="d"><use transform="matrix(0.05,0,0,0.05,0,0)" xlink:href="#ba"/><use transform="matrix(0.05,0,0,0.05,5,0)" xlink:href="#bb"/><use transform="matrix(0.05,0,0,0.05,15,0)" xlink:href="#bc"/><use transform="matrix(0.05,0,0,0.05,25,0)" xlink:href="#bd"/><use transform="matrix(0.05,0,0,0.05,35,0)" xlink:href="#bd"/><use transform="matrix(0.05,0,0,0.05,45,0)" xlink:href="#be"/></g><path d="M96-169c-40 0-48 33-48 73s9 75 48 75c24 0 41-14 43-38l32 2c-6 37-31 61-74 61-59 0-76-41-82-99-10-93 101-131 147-64 4 7 5 14 7 22l-32 3c-4-21-16-35-41-35" id="bf"/><path d="M24-231v-30h32v30H24zM24 0v-190h32V0H24" id="bg"/><path d="M59-47c-2 24 18 29 38 22v24C64 9 27 4 27-40v-127H5v-23h24l9-43h21v43h35v23H59v120" id="bh"/><path d="M135-143c-3-34-86-38-87 0 15 53 115 12 119 90S17 21 10-45l28-5c4 36 97 45 98 0-10-56-113-15-118-90-4-57 82-63 122-42 12 7 21 19 24 35" id="bi"/><g id="e"><use transform="matrix(0.05,0,0,0.05,0,0)" xlink:href="#bf"/><use transform="matrix(0.05,0,0,0.05,9,0)" xlink:href="#bd"/><use transform="matrix(0.05,0,0,0.05,19,0)" xlink:href="#bb"/><use transform="matrix(0.05,0,0,0.05,29,0)" xlink:href="#bc"/><use transform="matrix(0.05,0,0,0.05,39,0)" xlink:href="#bg"/><use transform="matrix(0.05,0,0,0.05,42.95,0)" xlink:href="#bh"/><use transform="matrix(0.05,0,0,0.05,47.95,0)" xlink:href="#bg"/><use transform="matrix(0.05,0,0,0.05,51.900000000000006,0)" xlink:href="#bd"/><use transform="matrix(0.05,0,0,0.05,61.900000000000006,0)" xlink:href="#bb"/><use transform="matrix(0.05,0,0,0.05,71.9,0)" xlink:href="#bi"/></g><path d="M185-189c-5-48-123-54-124 2 14 75 158 14 163 119 3 78-121 87-175 55-17-10-28-26-33-46l33-7c5 56 141 63 141-1 0-78-155-14-162-118-5-82 145-84 179-34 5 7 8 16 11 25" id="bj"/><path d="M84 4C-5 8 30-112 23-190h32v120c0 31 7 50 39 49 72-2 45-101 50-169h31l1 190h-30c-1-10 1-25-2-33-11 22-28 36-60 37" id="bk"/><path d="M115-194c53 0 69 39 70 98 0 66-23 100-70 100C84 3 66-7 56-30L54 0H23l1-261h32v101c10-23 28-34 59-34zm-8 174c40 0 45-34 45-75 0-40-5-75-45-74-42 0-51 32-51 76 0 43 10 73 51 73" id="bl"/><path d="M177-190C167-65 218 103 67 71c-23-6-38-20-44-43l32-5c15 47 100 32 89-28v-30C133-14 115 1 83 1 29 1 15-40 15-95c0-56 16-97 71-98 29-1 48 16 59 35 1-10 0-23 2-32h30zM94-22c36 0 50-32 50-73 0-42-14-75-50-75-39 0-46 34-46 75s6 73 46 73" id="bm"/><path d="M179-190L93 31C79 59 56 82 12 73V49c39 6 53-20 64-50L1-190h34L92-34l54-156h33" id="bn"/><g id="f"><use transform="matrix(0.05,0,0,0.05,0,0)" xlink:href="#bj"/><use transform="matrix(0.05,0,0,0.05,12,0)" xlink:href="#bk"/><use transform="matrix(0.05,0,0,0.05,22,0)" xlink:href="#bl"/><use transform="matrix(0.05,0,0,0.05,32,0)" xlink:href="#bf"/><use transform="matrix(0.05,0,0,0.05,41,0)" xlink:href="#aW"/><use transform="matrix(0.05,0,0,0.05,51,0)" xlink:href="#bh"/><use transform="matrix(0.05,0,0,0.05,56,0)" xlink:href="#aY"/><use transform="matrix(0.05,0,0,0.05,66,0)" xlink:href="#bm"/><use transform="matrix(0.05,0,0,0.05,76,0)" xlink:href="#bd"/><use transform="matrix(0.05,0,0,0.05,86,0)" xlink:href="#be"/><use transform="matrix(0.05,0,0,0.05,91.95,0)" xlink:href="#bn"/><use transform="matrix(0.05,0,0,0.05,100.95,0)" xlink:href="#aZ"/></g><path d="M18-100v-36l175-74v27L42-118l151 64v27" id="bo"/><path d="M18-27v-27l151-64-151-65v-27l175 74v36" id="bp"/><g id="g"><use transform="matrix(0.05,0,0,0.05,0,0)" xlink:href="#bo"/><use transform="matrix(0.05,0,0,0.05,10.5,0)" xlink:href="#bj"/><use transform="matrix(0.05,0,0,0.05,22.5,0)" xlink:href="#bk"/><use transform="matrix(0.05,0,0,0.05,32.5,0)" xlink:href="#bl"/><use transform="matrix(0.05,0,0,0.05,42.5,0)" xlink:href="#bf"/><use transform="matrix(0.05,0,0,0.05,51.5,0)" xlink:href="#aW"/><use transform="matrix(0.05,0,0,0.05,61.5,0)" xlink:href="#bh"/><use transform="matrix(0.05,0,0,0.05,66.5,0)" xlink:href="#aY"/><use transform="matrix(0.05,0,0,0.05,76.5,0)" xlink:href="#bm"/><use transform="matrix(0.05,0,0,0.05,86.5,0)" xlink:href="#bd"/><use transform="matrix(0.05,0,0,0.05,96.5,0)" xlink:href="#be"/><use transform="matrix(0.05,0,0,0.05,102.45,0)" xlink:href="#bn"/><use transform="matrix(0.05,0,0,0.05,111.45,0)" xlink:href="#bp"/></g><path d="M169-182c-1-43-94-46-97-3 18 66 151 10 154 114 3 95-165 93-204 36-6-8-10-19-12-30l50-8c3 46 112 56 116 5-17-69-150-10-154-114-4-87 153-88 188-35 5 8 8 18 10 28" id="bq"/><path d="M85 4C-2 5 27-109 22-190h50c7 57-23 150 33 157 60-5 35-97 40-157h50l1 190h-47c-2-12 1-28-3-38-12 25-28 42-61 42" id="br"/><path d="M135-194c52 0 70 43 70 98 0 56-19 99-73 100-30 1-46-15-58-35L72 0H24l1-261h50v104c11-23 29-37 60-37zM114-30c31 0 40-27 40-66 0-37-7-63-39-63s-41 28-41 65c0 36 8 64 40 64" id="bs"/><path d="M190-63c-7 42-38 67-86 67-59 0-84-38-90-98-12-110 154-137 174-36l-49 2c-2-19-15-32-35-32-30 0-35 28-38 64-6 74 65 87 74 30" id="bt"/><g id="h"><use transform="matrix(0.05,0,0,0.05,0,0)" xlink:href="#bq"/><use transform="matrix(0.05,0,0,0.05,12,0)" xlink:href="#br"/><use transform="matrix(0.05,0,0,0.05,22.950000000000003,0)" xlink:href="#bs"/><use transform="matrix(0.05,0,0,0.05,33.900000000000006,0)" xlink:href="#bt"/><use transform="matrix(0.05,0,0,0.05,43.900000000000006,0)" xlink:href="#aN"/><use transform="matrix(0.05,0,0,0.05,53.900000000000006,0)" xlink:href="#aO"/><use transform="matrix(0.05,0,0,0.05,59.85,0)" xlink:href="#aP"/><use transform="matrix(0.05,0,0,0.05,69.85000000000001,0)" xlink:href="#aQ"/><use transform="matrix(0.05,0,0,0.05,80.80000000000001,0)" xlink:href="#aR"/><use transform="matrix(0.05,0,0,0.05,91.75000000000001,0)" xlink:href="#aS"/><use transform="matrix(0.05,0,0,0.05,98.75000000000001,0)" xlink:href="#aT"/></g><path d="M197 0v-115H63V0H30v-248h33v105h134v-105h34V0h-34" id="bu"/><path d="M16-82v-28h88v28H16" id="bv"/><path d="M106-169C34-169 62-67 57 0H25v-261h32l-1 103c12-21 28-36 61-36 89 0 53 116 60 194h-32v-121c2-32-8-49-39-48" id="bw"/><path d="M24 0v-261h32V0H24" id="bx"/><g id="i"><use transform="matrix(0.05,0,0,0.05,0,0)" xlink:href="#bu"/><use transform="matrix(0.05,0,0,0.05,12.950000000000001,0)" xlink:href="#bn"/><use transform="matrix(0.05,0,0,0.05,21.950000000000003,0)" xlink:href="#bc"/><use transform="matrix(0.05,0,0,0.05,31.950000000000003,0)" xlink:href="#be"/><use transform="matrix(0.05,0,0,0.05,37.900000000000006,0)" xlink:href="#bd"/><use transform="matrix(0.05,0,0,0.05,47.900000000000006,0)" xlink:href="#bv"/><use transform="matrix(0.05,0,0,0.05,53.85,0)" xlink:href="#bh"/><use transform="matrix(0.05,0,0,0.05,58.85,0)" xlink:href="#bw"/><use transform="matrix(0.05,0,0,0.05,68.85000000000001,0)" xlink:href="#aY"/><use transform="matrix(0.05,0,0,0.05,78.85000000000001,0)" xlink:href="#be"/><use transform="matrix(0.05,0,0,0.05,84.80000000000001,0)" xlink:href="#aX"/><use transform="matrix(0.05,0,0,0.05,99.75000000000001,0)" xlink:href="#aW"/><use transform="matrix(0.05,0,0,0.05,109.75,0)" xlink:href="#bx"/></g><use transform="matrix(0.05,0,0,0.05,0,0)" xlink:href="#aU" id="k"/><path d="M240 0l2-218c-23 76-54 145-80 218h-23L58-218 59 0H30v-248h44l77 211c21-75 51-140 76-211h43V0h-30" id="by"/><g id="l"><use transform="matrix(0.05,0,0,0.05,0,0)" xlink:href="#by"/><use transform="matrix(0.05,0,0,0.05,14.950000000000001,0)" xlink:href="#bd"/><use transform="matrix(0.05,0,0,0.05,24.950000000000003,0)" xlink:href="#bb"/><use transform="matrix(0.05,0,0,0.05,34.95,0)" xlink:href="#bg"/><use transform="matrix(0.05,0,0,0.05,38.900000000000006,0)" xlink:href="#bh"/><use transform="matrix(0.05,0,0,0.05,43.900000000000006,0)" xlink:href="#bd"/><use transform="matrix(0.05,0,0,0.05,53.900000000000006,0)" xlink:href="#be"/><use transform="matrix(0.05,0,0,0.05,59.85,0)" xlink:href="#aY"/><use transform="matrix(0.05,0,0,0.05,69.85000000000001,0)" xlink:href="#bc"/></g><path d="M137 0h-34L2-248h35l83 218 83-218h36" id="bz"/><g id="m"><use transform="matrix(0.05,0,0,0.05,0,0)" xlink:href="#bz"/><use transform="matrix(0.05,0,0,0.05,10.65,0)" xlink:href="#aW"/><use transform="matrix(0.05,0,0,0.05,20.65,0)" xlink:href="#be"/><use transform="matrix(0.05,0,0,0.05,26.599999999999994,0)" xlink:href="#bg"/><use transform="matrix(0.05,0,0,0.05,30.549999999999997,0)" xlink:href="#aW"/><use transform="matrix(0.05,0,0,0.05,40.55,0)" xlink:href="#bl"/><use transform="matrix(0.05,0,0,0.05,50.55,0)" xlink:href="#bx"/><use transform="matrix(0.05,0,0,0.05,54.5,0)" xlink:href="#aY"/><use transform="matrix(0.05,0,0,0.05,64.5,0)" xlink:href="#aZ"/></g><g id="n"><use transform="matrix(0.05,0,0,0.05,0,0)" xlink:href="#bo"/><use transform="matrix(0.05,0,0,0.05,10.5,0)" xlink:href="#by"/><use transform="matrix(0.05,0,0,0.05,25.450000000000003,0)" xlink:href="#bd"/><use transform="matrix(0.05,0,0,0.05,35.45,0)" xlink:href="#bb"/><use transform="matrix(0.05,0,0,0.05,45.45,0)" xlink:href="#bg"/><use transform="matrix(0.05,0,0,0.05,49.400000000000006,0)" xlink:href="#bh"/><use transform="matrix(0.05,0,0,0.05,54.400000000000006,0)" xlink:href="#bd"/><use transform="matrix(0.05,0,0,0.05,64.4,0)" xlink:href="#be"/><use transform="matrix(0.05,0,0,0.05,70.35000000000001,0)" xlink:href="#aY"/><use transform="matrix(0.05,0,0,0.05,80.35000000000001,0)" xlink:href="#bc"/></g><g id="o"><use transform="matrix(0.05,0,0,0.05,0,0)" xlink:href="#bz"/><use transform="matrix(0.05,0,0,0.05,10.65,0)" xlink:href="#aW"/><use transform="matrix(0.05,0,0,0.05,20.65,0)" xlink:href="#be"/><use transform="matrix(0.05,0,0,0.05,26.599999999999994,0)" xlink:href="#bg"/><use transform="matrix(0.05,0,0,0.05,30.549999999999997,0)" xlink:href="#aW"/><use transform="matrix(0.05,0,0,0.05,40.55,0)" xlink:href="#bl"/><use transform="matrix(0.05,0,0,0.05,50.55,0)" xlink:href="#bx"/><use transform="matrix(0.05,0,0,0.05,54.5,0)" xlink:href="#aY"/><use transform="matrix(0.05,0,0,0.05,64.5,0)" xlink:href="#bp"/></g><path d="M205 0l-28-72H64L36 0H1l101-248h38L239 0h-34zm-38-99l-47-123c-12 45-31 82-46 123h93" id="bA"/><g id="p"><use transform="matrix(0.05,0,0,0.05,0,0)" xlink:href="#bA"/><use transform="matrix(0.05,0,0,0.05,12,0)" xlink:href="#bg"/><use transform="matrix(0.05,0,0,0.05,15.949999999999998,0)" xlink:href="#be"/></g><path d="M140-251c81 0 123 46 123 126C263-53 228-8 163 1c7 30 30 48 69 40v23c-55 16-95-15-103-61C56-3 17-48 17-125c0-80 42-126 123-126zm0 227c63 0 89-41 89-101s-29-99-89-99c-61 0-89 39-89 99S79-25 140-24" id="bB"/><g id="q"><use transform="matrix(0.05,0,0,0.05,0,0)" xlink:href="#bB"/><use transform="matrix(0.05,0,0,0.05,14,0)" xlink:href="#bk"/><use transform="matrix(0.05,0,0,0.05,24,0)" xlink:href="#aW"/><use transform="matrix(0.05,0,0,0.05,34,0)" xlink:href="#bx"/><use transform="matrix(0.05,0,0,0.05,37.95,0)" xlink:href="#bg"/><use transform="matrix(0.05,0,0,0.05,41.900000000000006,0)" xlink:href="#bh"/><use transform="matrix(0.05,0,0,0.05,46.900000000000006,0)" xlink:href="#bn"/></g><g id="r"><use transform="matrix(0.05,0,0,0.05,0,0)" xlink:href="#bz"/><use transform="matrix(0.05,0,0,0.05,10.65,0)" xlink:href="#aW"/><use transform="matrix(0.05,0,0,0.05,20.65,0)" xlink:href="#be"/><use transform="matrix(0.05,0,0,0.05,26.599999999999994,0)" xlink:href="#bg"/><use transform="matrix(0.05,0,0,0.05,30.549999999999997,0)" xlink:href="#aW"/><use transform="matrix(0.05,0,0,0.05,40.55,0)" xlink:href="#bl"/><use transform="matrix(0.05,0,0,0.05,50.55,0)" xlink:href="#bx"/><use transform="matrix(0.05,0,0,0.05,54.5,0)" xlink:href="#aY"/><use transform="matrix(0.05,0,0,0.05,64.5,0)" xlink:href="#bi"/><use transform="matrix(0.05,0,0,0.05,73.5,0)" xlink:href="#aZ"/></g><path d="M230 0l2-204L168 0h-37L68-204 70 0H24v-248h70l56 185 57-185h69V0h-46" id="bC"/><path d="M135-194c87-1 58 113 63 194h-50c-7-57 23-157-34-157-59 0-34 97-39 157H25l-1-190h47c2 12-1 28 3 38 12-26 28-41 61-42" id="bD"/><path d="M25-224v-37h50v37H25zM25 0v-190h50V0H25" id="bE"/><path d="M88-194c31-1 46 15 58 34l-1-101h50l1 261h-48c-2-10 0-23-3-31C134-8 116 4 84 4 32 4 16-41 15-95c0-56 19-97 73-99zm17 164c33 0 40-30 41-66 1-37-9-64-41-64s-38 30-39 65c0 43 13 65 39 65" id="bF"/><g id="s"><use transform="matrix(0.05,0,0,0.05,0,0)" xlink:href="#bC"/><use transform="matrix(0.05,0,0,0.05,14.950000000000001,0)" xlink:href="#aR"/><use transform="matrix(0.05,0,0,0.05,25.900000000000002,0)" xlink:href="#bD"/><use transform="matrix(0.05,0,0,0.05,36.85,0)" xlink:href="#bE"/><use transform="matrix(0.05,0,0,0.05,41.85,0)" xlink:href="#aO"/><use transform="matrix(0.05,0,0,0.05,47.800000000000004,0)" xlink:href="#aR"/><use transform="matrix(0.05,0,0,0.05,58.75,0)" xlink:href="#aS"/><use transform="matrix(0.05,0,0,0.05,65.75,0)" xlink:href="#aP"/><use transform="matrix(0.05,0,0,0.05,75.75,0)" xlink:href="#bF"/></g><path d="M147 0H94L2-248h55l64 206c17-72 42-137 63-206h54" id="bG"/><path d="M25 0v-261h50V0H25" id="bH"/><g id="t"><use transform="matrix(0.05,0,0,0.05,0,0)" xlink:href="#bG"/><use transform="matrix(0.05,0,0,0.05,11,0)" xlink:href="#aN"/><use transform="matrix(0.05,0,0,0.05,21,0)" xlink:href="#aS"/><use transform="matrix(0.05,0,0,0.05,28,0)" xlink:href="#bE"/><use transform="matrix(0.05,0,0,0.05,33,0)" xlink:href="#aN"/><use transform="matrix(0.05,0,0,0.05,43,0)" xlink:href="#bs"/><use transform="matrix(0.05,0,0,0.05,53.95,0)" xlink:href="#bH"/><use transform="matrix(0.05,0,0,0.05,58.95,0)" xlink:href="#aP"/></g><path d="M212-179c-10-28-35-45-73-45-59 0-87 40-87 99 0 60 29 101 89 101 43 0 62-24 78-52l27 14C228-24 195 4 139 4 59 4 22-46 18-125c-6-104 99-153 187-111 19 9 31 26 39 46" id="bI"/><path d="M140-251c81 0 123 46 123 126C263-46 219 4 140 4 59 4 17-45 17-125s42-126 123-126zm0 227c63 0 89-41 89-101s-29-99-89-99c-61 0-89 39-89 99S79-25 140-24" id="bJ"/><path d="M101-251c82-7 93 87 43 132L82-64C71-53 59-42 53-27h129V0H18c2-99 128-94 128-182 0-28-16-43-45-43s-46 15-49 41l-32-3c6-41 34-60 81-64" id="bK"/><g id="u"><use transform="matrix(0.05,0,0,0.05,0,0)" xlink:href="#bI"/><use transform="matrix(0.05,0,0,0.05,12.950000000000001,0)" xlink:href="#bJ"/><use transform="matrix(0.05,0,0,0.05,26.950000000000003,0)" xlink:href="#bK"/></g><g id="v"><use transform="matrix(0.05,0,0,0.05,0,0)" xlink:href="#bI"/><use transform="matrix(0.05,0,0,0.05,12.950000000000001,0)" xlink:href="#bd"/><use transform="matrix(0.05,0,0,0.05,22.950000000000003,0)" xlink:href="#bb"/><use transform="matrix(0.05,0,0,0.05,32.95,0)" xlink:href="#bf"/><use transform="matrix(0.05,0,0,0.05,41.95,0)" xlink:href="#aY"/><use transform="matrix(0.05,0,0,0.05,51.95,0)" xlink:href="#bb"/><use transform="matrix(0.05,0,0,0.05,61.95,0)" xlink:href="#bh"/><use transform="matrix(0.05,0,0,0.05,66.95,0)" xlink:href="#be"/><use transform="matrix(0.05,0,0,0.05,72.9,0)" xlink:href="#aW"/><use transform="matrix(0.05,0,0,0.05,82.9,0)" xlink:href="#bh"/><use transform="matrix(0.05,0,0,0.05,87.9,0)" xlink:href="#bg"/><use transform="matrix(0.05,0,0,0.05,91.85000000000001,0)" xlink:href="#bd"/><use transform="matrix(0.05,0,0,0.05,101.85000000000001,0)" xlink:href="#bb"/></g><g id="w"><use transform="matrix(0.05,0,0,0.05,0,0)" xlink:href="#bz"/><use transform="matrix(0.05,0,0,0.05,10.65,0)" xlink:href="#aW"/><use transform="matrix(0.05,0,0,0.05,20.65,0)" xlink:href="#bx"/><use transform="matrix(0.05,0,0,0.05,24.599999999999998,0)" xlink:href="#bk"/><use transform="matrix(0.05,0,0,0.05,34.599999999999994,0)" xlink:href="#aY"/><use transform="matrix(0.05,0,0,0.05,44.599999999999994,0)" xlink:href="#aZ"/></g><g id="x"><use transform="matrix(0.05,0,0,0.05,0,0)" xlink:href="#bo"/><use transform="matrix(0.05,0,0,0.05,10.5,0)" xlink:href="#bz"/><use transform="matrix(0.05,0,0,0.05,21.15,0)" xlink:href="#aW"/><use transform="matrix(0.05,0,0,0.05,31.149999999999995,0)" xlink:href="#bx"/><use transform="matrix(0.05,0,0,0.05,35.1,0)" xlink:href="#bk"/><use transform="matrix(0.05,0,0,0.05,45.1,0)" xlink:href="#aY"/><use transform="matrix(0.05,0,0,0.05,55.1,0)" xlink:href="#bp"/></g><path d="M30-248c118-7 216 8 213 122C240-48 200 0 122 0H30v-248zM63-27c89 8 146-16 146-99s-60-101-146-95v194" id="bL"/><g id="y"><use transform="matrix(0.05,0,0,0.05,0,0)" xlink:href="#bL"/><use transform="matrix(0.05,0,0,0.05,12.950000000000001,0)" xlink:href="#aW"/><use transform="matrix(0.05,0,0,0.05,22.950000000000003,0)" xlink:href="#bh"/><use transform="matrix(0.05,0,0,0.05,27.950000000000003,0)" xlink:href="#aW"/></g><g id="z"><use transform="matrix(0.05,0,0,0.05,0,0)" xlink:href="#bj"/><use transform="matrix(0.05,0,0,0.05,12,0)" xlink:href="#bd"/><use transform="matrix(0.05,0,0,0.05,22,0)" xlink:href="#bk"/><use transform="matrix(0.05,0,0,0.05,32,0)" xlink:href="#be"/><use transform="matrix(0.05,0,0,0.05,37.95,0)" xlink:href="#bf"/><use transform="matrix(0.05,0,0,0.05,46.95,0)" xlink:href="#aY"/><use transform="matrix(0.05,0,0,0.05,56.95,0)" xlink:href="#aZ"/></g><g id="A"><use transform="matrix(0.05,0,0,0.05,0,0)" xlink:href="#bo"/><use transform="matrix(0.05,0,0,0.05,10.5,0)" xlink:href="#bL"/><use transform="matrix(0.05,0,0,0.05,23.450000000000003,0)" xlink:href="#aW"/><use transform="matrix(0.05,0,0,0.05,33.45,0)" xlink:href="#bh"/><use transform="matrix(0.05,0,0,0.05,38.45,0)" xlink:href="#aW"/></g><g id="B"><use transform="matrix(0.05,0,0,0.05,0,0)" xlink:href="#bj"/><use transform="matrix(0.05,0,0,0.05,12,0)" xlink:href="#bd"/><use transform="matrix(0.05,0,0,0.05,22,0)" xlink:href="#bk"/><use transform="matrix(0.05,0,0,0.05,32,0)" xlink:href="#be"/><use transform="matrix(0.05,0,0,0.05,37.95,0)" xlink:href="#bf"/><use transform="matrix(0.05,0,0,0.05,46.95,0)" xlink:href="#aY"/><use transform="matrix(0.05,0,0,0.05,56.95,0)" xlink:href="#bp"/></g><path d="M24-248c120-7 223 5 221 122C244-46 201 0 124 0H24v-248zM76-40c74 7 117-18 117-86 0-67-45-88-117-82v168" id="bM"/><g id="C"><use transform="matrix(0.05,0,0,0.05,0,0)" xlink:href="#bM"/><use transform="matrix(0.05,0,0,0.05,12.950000000000001,0)" xlink:href="#aN"/><use transform="matrix(0.05,0,0,0.05,22.950000000000003,0)" xlink:href="#aO"/><use transform="matrix(0.05,0,0,0.05,28.900000000000002,0)" xlink:href="#aN"/></g><g id="D"><use transform="matrix(0.05,0,0,0.05,0,0)" xlink:href="#bq"/><use transform="matrix(0.05,0,0,0.05,12,0)" xlink:href="#aR"/><use transform="matrix(0.05,0,0,0.05,22.950000000000003,0)" xlink:href="#br"/><use transform="matrix(0.05,0,0,0.05,33.900000000000006,0)" xlink:href="#aS"/><use transform="matrix(0.05,0,0,0.05,40.900000000000006,0)" xlink:href="#bt"/><use transform="matrix(0.05,0,0,0.05,50.900000000000006,0)" xlink:href="#aP"/></g><g id="E"><use transform="matrix(0.05,0,0,0.05,0,0)" xlink:href="#bI"/><use transform="matrix(0.05,0,0,0.05,12.950000000000001,0)" xlink:href="#aW"/><use transform="matrix(0.05,0,0,0.05,22.950000000000003,0)" xlink:href="#bh"/><use transform="matrix(0.05,0,0,0.05,27.950000000000003,0)" xlink:href="#aY"/><use transform="matrix(0.05,0,0,0.05,37.95,0)" xlink:href="#bm"/><use transform="matrix(0.05,0,0,0.05,47.95,0)" xlink:href="#bd"/><use transform="matrix(0.05,0,0,0.05,57.95,0)" xlink:href="#be"/><use transform="matrix(0.05,0,0,0.05,63.900000000000006,0)" xlink:href="#bn"/><use transform="matrix(0.05,0,0,0.05,72.9,0)" xlink:href="#aZ"/></g><g id="F"><use transform="matrix(0.05,0,0,0.05,0,0)" xlink:href="#bj"/><use transform="matrix(0.05,0,0,0.05,12,0)" xlink:href="#aY"/><use transform="matrix(0.05,0,0,0.05,22,0)" xlink:href="#bb"/><use transform="matrix(0.05,0,0,0.05,32,0)" xlink:href="#bi"/><use transform="matrix(0.05,0,0,0.05,41,0)" xlink:href="#bd"/><use transform="matrix(0.05,0,0,0.05,51,0)" xlink:href="#be"/></g><path d="M143 4C61 4 22-44 18-125c-5-107 100-154 193-111 17 8 29 25 37 43l-32 9c-13-25-37-40-76-40-61 0-88 39-88 99 0 61 29 100 91 101 35 0 62-11 79-27v-45h-74v-28h105v86C228-13 192 4 143 4" id="bN"/><g id="G"><use transform="matrix(0.05,0,0,0.05,0,0)" xlink:href="#bN"/><use transform="matrix(0.05,0,0,0.05,14,0)" xlink:href="#aY"/><use transform="matrix(0.05,0,0,0.05,24,0)" xlink:href="#bb"/><use transform="matrix(0.05,0,0,0.05,34,0)" xlink:href="#aY"/><use transform="matrix(0.05,0,0,0.05,44,0)" xlink:href="#be"/><use transform="matrix(0.05,0,0,0.05,49.95,0)" xlink:href="#aW"/><use transform="matrix(0.05,0,0,0.05,59.95,0)" xlink:href="#bx"/></g><g id="H"><use transform="matrix(0.05,0,0,0.05,0,0)" xlink:href="#ba"/><use transform="matrix(0.05,0,0,0.05,5,0)" xlink:href="#bL"/><use transform="matrix(0.05,0,0,0.05,17.950000000000003,0)" xlink:href="#aZ"/></g><g id="I"><use transform="matrix(0.05,0,0,0.05,0,0)" xlink:href="#bI"/><use transform="matrix(0.05,0,0,0.05,12.950000000000001,0)" xlink:href="#bJ"/></g><path d="M143 0L79-87 56-68V0H24v-261h32v163l83-92h37l-77 82L181 0h-38" id="bO"/><g id="J"><use transform="matrix(0.05,0,0,0.05,0,0)" xlink:href="#by"/><use transform="matrix(0.05,0,0,0.05,14.950000000000001,0)" xlink:href="#aW"/><use transform="matrix(0.05,0,0,0.05,24.950000000000003,0)" xlink:href="#bO"/><use transform="matrix(0.05,0,0,0.05,33.95,0)" xlink:href="#aY"/><use transform="matrix(0.05,0,0,0.05,43.95,0)" xlink:href="#aZ"/></g><path d="M30-248c87 1 191-15 191 75 0 78-77 80-158 76V0H30v-248zm33 125c57 0 124 11 124-50 0-59-68-47-124-48v98" id="bP"/><g id="K"><use transform="matrix(0.05,0,0,0.05,0,0)" xlink:href="#bP"/><use transform="matrix(0.05,0,0,0.05,12,0)" xlink:href="#be"/><use transform="matrix(0.05,0,0,0.05,17.95,0)" xlink:href="#aY"/><use transform="matrix(0.05,0,0,0.05,27.950000000000003,0)" xlink:href="#bi"/><use transform="matrix(0.05,0,0,0.05,36.95,0)" xlink:href="#bi"/><use transform="matrix(0.05,0,0,0.05,45.95,0)" xlink:href="#aW"/><use transform="matrix(0.05,0,0,0.05,55.95,0)" xlink:href="#bf"/></g><path d="M266 0h-40l-56-210L115 0H75L2-248h35L96-30l15-64 43-154h32l59 218 59-218h35" id="bQ"/><g id="L"><use transform="matrix(0.05,0,0,0.05,0,0)" xlink:href="#bQ"/><use transform="matrix(0.05,0,0,0.05,16.95,0)" xlink:href="#bg"/><use transform="matrix(0.05,0,0,0.05,20.9,0)" xlink:href="#be"/><use transform="matrix(0.05,0,0,0.05,26.849999999999994,0)" xlink:href="#aY"/><use transform="matrix(0.05,0,0,0.05,36.849999999999994,0)" xlink:href="#bx"/><use transform="matrix(0.05,0,0,0.05,40.8,0)" xlink:href="#aY"/><use transform="matrix(0.05,0,0,0.05,50.8,0)" xlink:href="#bi"/><use transform="matrix(0.05,0,0,0.05,59.79999999999999,0)" xlink:href="#bi"/></g><g id="M"><use transform="matrix(0.05,0,0,0.05,0,0)" xlink:href="#bj"/><use transform="matrix(0.05,0,0,0.05,12,0)" xlink:href="#aY"/><use transform="matrix(0.05,0,0,0.05,22,0)" xlink:href="#bb"/><use transform="matrix(0.05,0,0,0.05,32,0)" xlink:href="#bi"/><use transform="matrix(0.05,0,0,0.05,41,0)" xlink:href="#bd"/><use transform="matrix(0.05,0,0,0.05,51,0)" xlink:href="#be"/></g><g id="N"><use transform="matrix(0.05,0,0,0.05,0,0)" xlink:href="#bG"/><use transform="matrix(0.05,0,0,0.05,11,0)" xlink:href="#aN"/><use transform="matrix(0.05,0,0,0.05,21,0)" xlink:href="#bH"/><use transform="matrix(0.05,0,0,0.05,26,0)" xlink:href="#br"/><use transform="matrix(0.05,0,0,0.05,36.95,0)" xlink:href="#aP"/></g><g id="O"><use transform="matrix(0.05,0,0,0.05,0,0)" xlink:href="#by"/><use transform="matrix(0.05,0,0,0.05,14.950000000000001,0)" xlink:href="#aY"/><use transform="matrix(0.05,0,0,0.05,24.950000000000003,0)" xlink:href="#aW"/><use transform="matrix(0.05,0,0,0.05,34.95,0)" xlink:href="#bi"/><use transform="matrix(0.05,0,0,0.05,43.95,0)" xlink:href="#bk"/><use transform="matrix(0.05,0,0,0.05,53.95,0)" xlink:href="#be"/><use transform="matrix(0.05,0,0,0.05,59.900000000000006,0)" xlink:href="#aY"/><use transform="matrix(0.05,0,0,0.05,69.9,0)" xlink:href="#bc"/></g><g id="P"><use transform="matrix(0.05,0,0,0.05,0,0)" xlink:href="#bz"/><use transform="matrix(0.05,0,0,0.05,10.65,0)" xlink:href="#aW"/><use transform="matrix(0.05,0,0,0.05,20.65,0)" xlink:href="#bx"/><use transform="matrix(0.05,0,0,0.05,24.599999999999998,0)" xlink:href="#bk"/><use transform="matrix(0.05,0,0,0.05,34.599999999999994,0)" xlink:href="#aY"/></g><path d="M233-177c-1 41-23 64-60 70L243 0h-38l-65-103H63V0H30v-248c88 3 205-21 203 71zM63-129c60-2 137 13 137-47 0-61-80-42-137-45v92" id="bR"/><g id="Q"><use transform="matrix(0.05,0,0,0.05,0,0)" xlink:href="#bR"/><use transform="matrix(0.05,0,0,0.05,12.950000000000001,0)" xlink:href="#aW"/><use transform="matrix(0.05,0,0,0.05,22.950000000000003,0)" xlink:href="#bb"/><use transform="matrix(0.05,0,0,0.05,32.95,0)" xlink:href="#bm"/><use transform="matrix(0.05,0,0,0.05,42.95,0)" xlink:href="#aY"/><use transform="matrix(0.05,0,0,0.05,52.95,0)" xlink:href="#aZ"/></g><path d="M26 75v-336h71v23H56V52h41v23H26" id="bS"/><path d="M101-251c68 0 85 55 85 127S166 4 100 4C33 4 14-52 14-124c0-73 17-127 87-127zm-1 229c47 0 54-49 54-102s-4-102-53-102c-51 0-55 48-55 102 0 53 5 102 54 102" id="bT"/><path d="M68-38c1 34 0 65-14 84H32c9-13 17-26 17-46H33v-38h35" id="bU"/><path d="M27 0v-27h64v-190l-56 39v-29l58-41h29v221h61V0H27" id="bV"/><path d="M3 75V52h41v-290H3v-23h71V75H3" id="bW"/><g id="R"><use transform="matrix(0.05,0,0,0.05,0,0)" xlink:href="#bS"/><use transform="matrix(0.05,0,0,0.05,5,0)" xlink:href="#bT"/><use transform="matrix(0.05,0,0,0.05,15,0)" xlink:href="#bU"/><use transform="matrix(0.05,0,0,0.05,20,0)" xlink:href="#bV"/><use transform="matrix(0.05,0,0,0.05,30,0)" xlink:href="#bT"/><use transform="matrix(0.05,0,0,0.05,40,0)" xlink:href="#bT"/><use transform="matrix(0.05,0,0,0.05,50,0)" xlink:href="#bW"/></g><path d="M30 0v-248h187v28H63v79h144v27H63v87h162V0H30" id="bX"/><g id="S"><use transform="matrix(0.05,0,0,0.05,0,0)" xlink:href="#bX"/><use transform="matrix(0.05,0,0,0.05,12,0)" xlink:href="#be"/><use transform="matrix(0.05,0,0,0.05,17.95,0)" xlink:href="#be"/><use transform="matrix(0.05,0,0,0.05,23.9,0)" xlink:href="#bd"/><use transform="matrix(0.05,0,0,0.05,33.9,0)" xlink:href="#be"/><use transform="matrix(0.05,0,0,0.05,39.85,0)" xlink:href="#aZ"/></g><path d="M127-220V0H93v-220H8v-28h204v28h-85" id="bY"/><path d="M115-194c55 1 70 41 70 98S169 2 115 4C84 4 66-9 55-30l1 105H24l-1-265h31l2 30c10-21 28-34 59-34zm-8 174c40 0 45-34 45-75s-6-73-45-74c-42 0-51 32-51 76 0 43 10 73 51 73" id="bZ"/><g id="T"><use transform="matrix(0.05,0,0,0.05,0,0)" xlink:href="#bY"/><use transform="matrix(0.05,0,0,0.05,9.950000000000001,0)" xlink:href="#bn"/><use transform="matrix(0.05,0,0,0.05,18.950000000000003,0)" xlink:href="#bZ"/><use transform="matrix(0.05,0,0,0.05,28.950000000000003,0)" xlink:href="#aY"/><use transform="matrix(0.05,0,0,0.05,38.95,0)" xlink:href="#aZ"/></g><path d="M108 0H70L1-190h34L89-25l56-165h34" id="ca"/><g id="U"><use transform="matrix(0.05,0,0,0.05,0,0)" xlink:href="#bo"/><use transform="matrix(0.05,0,0,0.05,10.5,0)" xlink:href="#bB"/><use transform="matrix(0.05,0,0,0.05,24.5,0)" xlink:href="#bk"/><use transform="matrix(0.05,0,0,0.05,34.5,0)" xlink:href="#aW"/><use transform="matrix(0.05,0,0,0.05,44.5,0)" xlink:href="#bb"/><use transform="matrix(0.05,0,0,0.05,54.5,0)" xlink:href="#bh"/><use transform="matrix(0.05,0,0,0.05,59.5,0)" xlink:href="#bg"/><use transform="matrix(0.05,0,0,0.05,63.45,0)" xlink:href="#bh"/><use transform="matrix(0.05,0,0,0.05,68.45,0)" xlink:href="#aW"/><use transform="matrix(0.05,0,0,0.05,78.45,0)" xlink:href="#bh"/><use transform="matrix(0.05,0,0,0.05,83.45,0)" xlink:href="#bg"/><use transform="matrix(0.05,0,0,0.05,87.4,0)" xlink:href="#ca"/><use transform="matrix(0.05,0,0,0.05,96.4,0)" xlink:href="#aY"/><use transform="matrix(0.05,0,0,0.05,106.4,0)" xlink:href="#bp"/></g><path d="M232-93c-1 65-40 97-104 97C67 4 28-28 28-90v-158h33c8 89-33 224 67 224 102 0 64-133 71-224h33v155" id="cb"/><g id="V"><use transform="matrix(0.05,0,0,0.05,0,0)" xlink:href="#cb"/><use transform="matrix(0.05,0,0,0.05,12.950000000000001,0)" xlink:href="#bb"/><use transform="matrix(0.05,0,0,0.05,22.950000000000003,0)" xlink:href="#bg"/><use transform="matrix(0.05,0,0,0.05,26.900000000000002,0)" xlink:href="#bh"/><use transform="matrix(0.05,0,0,0.05,31.900000000000002,0)" xlink:href="#aZ"/></g><path d="M252-156c43 0 55 33 55 80 0 46-13 78-56 78-42 0-55-33-55-78 0-48 12-80 56-80zM93 0H65l162-248h28zM13-171c-1-47 13-79 56-79s55 33 55 79-13 79-55 79c-43 0-56-33-56-79zM251-17c28 0 30-29 30-59 0-31-1-60-29-60-29 0-31 29-31 60 0 29 2 59 30 59zM69-112c27 0 28-30 29-59 0-31-1-60-29-60-29 0-30 30-30 60s2 59 30 59" id="cc"/><use transform="matrix(0.05,0,0,0.05,0,0)" xlink:href="#cc" id="W"/><path d="M33 0v-38h34V0H33" id="cd"/><g id="X"><use transform="matrix(0.05,0,0,0.05,0,0)" xlink:href="#bR"/><use transform="matrix(0.05,0,0,0.05,12.950000000000001,0)" xlink:href="#cd"/><use transform="matrix(0.05,0,0,0.05,17.950000000000003,0)" xlink:href="#bu"/><use transform="matrix(0.05,0,0,0.05,30.900000000000006,0)" xlink:href="#cd"/></g><g id="Y"><use transform="matrix(0.05,0,0,0.05,0,0)" xlink:href="#bj"/><use transform="matrix(0.05,0,0,0.05,12,0)" xlink:href="#bZ"/><use transform="matrix(0.05,0,0,0.05,22,0)" xlink:href="#aW"/><use transform="matrix(0.05,0,0,0.05,32,0)" xlink:href="#bh"/><use transform="matrix(0.05,0,0,0.05,37,0)" xlink:href="#bg"/><use transform="matrix(0.05,0,0,0.05,40.95,0)" xlink:href="#aW"/><use transform="matrix(0.05,0,0,0.05,50.95,0)" xlink:href="#bx"/></g><g id="Z"><use transform="matrix(0.05,0,0,0.05,0,0)" xlink:href="#bA"/><use transform="matrix(0.05,0,0,0.05,12,0)" xlink:href="#bh"/><use transform="matrix(0.05,0,0,0.05,17,0)" xlink:href="#bh"/><use transform="matrix(0.05,0,0,0.05,22,0)" xlink:href="#be"/><use transform="matrix(0.05,0,0,0.05,27.950000000000003,0)" xlink:href="#bg"/><use transform="matrix(0.05,0,0,0.05,31.899999999999995,0)" xlink:href="#bl"/><use transform="matrix(0.05,0,0,0.05,41.9,0)" xlink:href="#bk"/><use transform="matrix(0.05,0,0,0.05,51.900000000000006,0)" xlink:href="#bh"/><use transform="matrix(0.05,0,0,0.05,56.900000000000006,0)" xlink:href="#aY"/></g><g id="aa"><use transform="matrix(0.05,0,0,0.05,0,0)" xlink:href="#bo"/><use transform="matrix(0.05,0,0,0.05,10.5,0)" xlink:href="#bj"/><use transform="matrix(0.05,0,0,0.05,22.5,0)" xlink:href="#bZ"/><use transform="matrix(0.05,0,0,0.05,32.5,0)" xlink:href="#aW"/><use transform="matrix(0.05,0,0,0.05,42.5,0)" xlink:href="#bh"/><use transform="matrix(0.05,0,0,0.05,47.5,0)" xlink:href="#bg"/><use transform="matrix(0.05,0,0,0.05,51.45,0)" xlink:href="#aW"/><use transform="matrix(0.05,0,0,0.05,61.45,0)" xlink:href="#bx"/></g><g id="ab"><use transform="matrix(0.05,0,0,0.05,0,0)" xlink:href="#bA"/><use transform="matrix(0.05,0,0,0.05,12,0)" xlink:href="#bh"/><use transform="matrix(0.05,0,0,0.05,17,0)" xlink:href="#bh"/><use transform="matrix(0.05,0,0,0.05,22,0)" xlink:href="#be"/><use transform="matrix(0.05,0,0,0.05,27.950000000000003,0)" xlink:href="#bg"/><use transform="matrix(0.05,0,0,0.05,31.899999999999995,0)" xlink:href="#bl"/><use transform="matrix(0.05,0,0,0.05,41.9,0)" xlink:href="#bk"/><use transform="matrix(0.05,0,0,0.05,51.900000000000006,0)" xlink:href="#bh"/><use transform="matrix(0.05,0,0,0.05,56.900000000000006,0)" xlink:href="#aY"/><use transform="matrix(0.05,0,0,0.05,66.9,0)" xlink:href="#bp"/></g><g id="ac"><use transform="matrix(0.05,0,0,0.05,0,0)" xlink:href="#bY"/><use transform="matrix(0.05,0,0,0.05,8.950000000000001,0)" xlink:href="#aY"/><use transform="matrix(0.05,0,0,0.05,18.950000000000003,0)" xlink:href="#aX"/><use transform="matrix(0.05,0,0,0.05,33.900000000000006,0)" xlink:href="#bZ"/><use transform="matrix(0.05,0,0,0.05,43.900000000000006,0)" xlink:href="#bd"/><use transform="matrix(0.05,0,0,0.05,53.900000000000006,0)" xlink:href="#be"/><use transform="matrix(0.05,0,0,0.05,59.85,0)" xlink:href="#aW"/><use transform="matrix(0.05,0,0,0.05,69.85000000000001,0)" xlink:href="#bx"/></g><g id="ad"><use transform="matrix(0.05,0,0,0.05,0,0)" xlink:href="#bA"/><use transform="matrix(0.05,0,0,0.05,12,0)" xlink:href="#bh"/><use transform="matrix(0.05,0,0,0.05,17,0)" xlink:href="#bh"/><use transform="matrix(0.05,0,0,0.05,22,0)" xlink:href="#be"/><use transform="matrix(0.05,0,0,0.05,27.950000000000003,0)" xlink:href="#bg"/><use transform="matrix(0.05,0,0,0.05,31.899999999999995,0)" xlink:href="#bl"/><use transform="matrix(0.05,0,0,0.05,41.9,0)" xlink:href="#bk"/><use transform="matrix(0.05,0,0,0.05,51.900000000000006,0)" xlink:href="#bh"/><use transform="matrix(0.05,0,0,0.05,56.900000000000006,0)" xlink:href="#aY"/><use transform="matrix(0.05,0,0,0.05,66.9,0)" xlink:href="#aZ"/></g><g id="ae"><use transform="matrix(0.05,0,0,0.05,0,0)" xlink:href="#bo"/><use transform="matrix(0.05,0,0,0.05,10.5,0)" xlink:href="#bY"/><use transform="matrix(0.05,0,0,0.05,19.450000000000003,0)" xlink:href="#aY"/><use transform="matrix(0.05,0,0,0.05,29.450000000000003,0)" xlink:href="#aX"/><use transform="matrix(0.05,0,0,0.05,44.400000000000006,0)" xlink:href="#bZ"/><use transform="matrix(0.05,0,0,0.05,54.400000000000006,0)" xlink:href="#bd"/><use transform="matrix(0.05,0,0,0.05,64.4,0)" xlink:href="#be"/><use transform="matrix(0.05,0,0,0.05,70.35000000000001,0)" xlink:href="#aW"/><use transform="matrix(0.05,0,0,0.05,80.35000000000001,0)" xlink:href="#bx"/></g><g id="af"><use transform="matrix(0.05,0,0,0.05,0,0)" xlink:href="#bA"/><use transform="matrix(0.05,0,0,0.05,12,0)" xlink:href="#bh"/><use transform="matrix(0.05,0,0,0.05,17,0)" xlink:href="#bh"/><use transform="matrix(0.05,0,0,0.05,22,0)" xlink:href="#be"/><use transform="matrix(0.05,0,0,0.05,27.950000000000003,0)" xlink:href="#bg"/><use transform="matrix(0.05,0,0,0.05,31.899999999999995,0)" xlink:href="#bl"/><use transform="matrix(0.05,0,0,0.05,41.9,0)" xlink:href="#bk"/><use transform="matrix(0.05,0,0,0.05,51.900000000000006,0)" xlink:href="#bh"/><use transform="matrix(0.05,0,0,0.05,56.900000000000006,0)" xlink:href="#aY"/><use transform="matrix(0.05,0,0,0.05,66.9,0)" xlink:href="#bp"/></g><g id="ag"><use transform="matrix(0.05,0,0,0.05,0,0)" xlink:href="#bR"/><use transform="matrix(0.05,0,0,0.05,12.950000000000001,0)" xlink:href="#aW"/><use transform="matrix(0.05,0,0,0.05,22.950000000000003,0)" xlink:href="#bb"/><use transform="matrix(0.05,0,0,0.05,32.95,0)" xlink:href="#bm"/><use transform="matrix(0.05,0,0,0.05,42.95,0)" xlink:href="#aY"/><use transform="matrix(0.05,0,0,0.05,52.95,0)" xlink:href="#aZ"/></g><path d="M54-142c48-35 137-8 131 61C196 18 31 33 14-55l32-4c7 23 22 37 52 37 35-1 51-22 54-58 4-55-73-65-99-34H22l8-134h141v27H59" id="ce"/><g id="ah"><use transform="matrix(0.05,0,0,0.05,0,0)" xlink:href="#bS"/><use transform="matrix(0.05,0,0,0.05,5,0)" xlink:href="#bT"/><use transform="matrix(0.05,0,0,0.05,15,0)" xlink:href="#bU"/><use transform="matrix(0.05,0,0,0.05,20,0)" xlink:href="#ce"/><use transform="matrix(0.05,0,0,0.05,30,0)" xlink:href="#bV"/><use transform="matrix(0.05,0,0,0.05,40,0)" xlink:href="#bW"/></g><g id="ai"><use transform="matrix(0.05,0,0,0.05,0,0)" xlink:href="#bX"/><use transform="matrix(0.05,0,0,0.05,12,0)" xlink:href="#be"/><use transform="matrix(0.05,0,0,0.05,17.95,0)" xlink:href="#be"/><use transform="matrix(0.05,0,0,0.05,23.9,0)" xlink:href="#bd"/><use transform="matrix(0.05,0,0,0.05,33.9,0)" xlink:href="#be"/><use transform="matrix(0.05,0,0,0.05,39.85,0)" xlink:href="#aZ"/></g><g id="aj"><use transform="matrix(0.05,0,0,0.05,0,0)" xlink:href="#bL"/><use transform="matrix(0.05,0,0,0.05,12.950000000000001,0)" xlink:href="#aY"/><use transform="matrix(0.05,0,0,0.05,22.950000000000003,0)" xlink:href="#bm"/><use transform="matrix(0.05,0,0,0.05,32.95,0)" xlink:href="#be"/><use transform="matrix(0.05,0,0,0.05,38.900000000000006,0)" xlink:href="#aY"/><use transform="matrix(0.05,0,0,0.05,48.900000000000006,0)" xlink:href="#aY"/><use transform="matrix(0.05,0,0,0.05,58.900000000000006,0)" xlink:href="#bi"/></g><g id="ak"><use transform="matrix(0.05,0,0,0.05,0,0)" xlink:href="#bI"/><use transform="matrix(0.05,0,0,0.05,12.950000000000001,0)" xlink:href="#aY"/><use transform="matrix(0.05,0,0,0.05,22.950000000000003,0)" xlink:href="#bx"/><use transform="matrix(0.05,0,0,0.05,26.900000000000002,0)" xlink:href="#bi"/><use transform="matrix(0.05,0,0,0.05,35.900000000000006,0)" xlink:href="#bg"/><use transform="matrix(0.05,0,0,0.05,39.85000000000001,0)" xlink:href="#bk"/><use transform="matrix(0.05,0,0,0.05,49.85000000000001,0)" xlink:href="#bi"/></g><g id="al"><use transform="matrix(0.05,0,0,0.05,0,0)" xlink:href="#bS"/><use transform="matrix(0.05,0,0,0.05,5,0)" xlink:href="#bT"/><use transform="matrix(0.05,0,0,0.05,15,0)" xlink:href="#bU"/><use transform="matrix(0.05,0,0,0.05,20,0)" xlink:href="#bK"/><use transform="matrix(0.05,0,0,0.05,30,0)" xlink:href="#ce"/><use transform="matrix(0.05,0,0,0.05,40,0)" xlink:href="#ce"/><use transform="matrix(0.05,0,0,0.05,50,0)" xlink:href="#bT"/><use transform="matrix(0.05,0,0,0.05,60,0)" xlink:href="#bW"/></g><g id="am"><use transform="matrix(0.05,0,0,0.05,0,0)" xlink:href="#bP"/><use transform="matrix(0.05,0,0,0.05,12,0)" xlink:href="#aW"/><use transform="matrix(0.05,0,0,0.05,22,0)" xlink:href="#be"/><use transform="matrix(0.05,0,0,0.05,27.950000000000003,0)" xlink:href="#bh"/><use transform="matrix(0.05,0,0,0.05,32.95,0)" xlink:href="#bi"/></g><g id="an"><use transform="matrix(0.05,0,0,0.05,0,0)" xlink:href="#bP"/><use transform="matrix(0.05,0,0,0.05,12,0)" xlink:href="#aY"/><use transform="matrix(0.05,0,0,0.05,22,0)" xlink:href="#be"/></g><g id="ao"><use transform="matrix(0.05,0,0,0.05,0,0)" xlink:href="#by"/><use transform="matrix(0.05,0,0,0.05,14.950000000000001,0)" xlink:href="#bg"/><use transform="matrix(0.05,0,0,0.05,18.900000000000002,0)" xlink:href="#bx"/><use transform="matrix(0.05,0,0,0.05,22.85,0)" xlink:href="#bx"/><use transform="matrix(0.05,0,0,0.05,26.8,0)" xlink:href="#bg"/><use transform="matrix(0.05,0,0,0.05,30.75,0)" xlink:href="#bd"/><use transform="matrix(0.05,0,0,0.05,40.75,0)" xlink:href="#bb"/></g><path d="M136-208V0H84v-208H4v-40h212v40h-80" id="cf"/><path d="M220-157c-53 9-28 100-34 157h-49v-107c1-27-5-49-29-50C55-147 81-57 75 0H25l-1-190h47c2 12-1 28 3 38 10-53 101-56 108 0 13-22 24-43 59-42 82 1 51 116 57 194h-49v-107c-1-25-5-48-29-50" id="cg"/><path d="M135-194c53 0 70 44 70 98 0 56-19 98-73 100-31 1-45-17-59-34 3 33 2 69 2 105H25l-1-265h48c2 10 0 23 3 31 11-24 29-35 60-35zM114-30c33 0 39-31 40-66 0-38-9-64-40-64-56 0-55 130 0 130" id="ch"/><g id="ap"><use transform="matrix(0.05,0,0,0.05,0,0)" xlink:href="#cf"/><use transform="matrix(0.05,0,0,0.05,9.600000000000001,0)" xlink:href="#aP"/><use transform="matrix(0.05,0,0,0.05,19.6,0)" xlink:href="#cg"/><use transform="matrix(0.05,0,0,0.05,35.6,0)" xlink:href="#ch"/><use transform="matrix(0.05,0,0,0.05,46.550000000000004,0)" xlink:href="#aR"/><use transform="matrix(0.05,0,0,0.05,57.5,0)" xlink:href="#aS"/><use transform="matrix(0.05,0,0,0.05,64.5,0)" xlink:href="#aN"/><use transform="matrix(0.05,0,0,0.05,74.5,0)" xlink:href="#bH"/></g><path d="M199 0l-22-63H83L61 0H9l90-248h61L250 0h-51zm-33-102l-36-108c-10 38-24 72-36 108h72" id="ci"/><g id="aq"><use transform="matrix(0.05,0,0,0.05,0,0)" xlink:href="#ci"/><use transform="matrix(0.05,0,0,0.05,12.950000000000001,0)" xlink:href="#aO"/><use transform="matrix(0.05,0,0,0.05,18.900000000000002,0)" xlink:href="#aO"/><use transform="matrix(0.05,0,0,0.05,24.85,0)" xlink:href="#aS"/><use transform="matrix(0.05,0,0,0.05,31.85,0)" xlink:href="#bE"/><use transform="matrix(0.05,0,0,0.05,36.85,0)" xlink:href="#bs"/><use transform="matrix(0.05,0,0,0.05,47.800000000000004,0)" xlink:href="#br"/><use transform="matrix(0.05,0,0,0.05,58.75,0)" xlink:href="#aO"/><use transform="matrix(0.05,0,0,0.05,64.7,0)" xlink:href="#aP"/></g><g id="ar"><use transform="matrix(0.05,0,0,0.05,0,0)" xlink:href="#bJ"/><use transform="matrix(0.05,0,0,0.05,14,0)" xlink:href="#bZ"/><use transform="matrix(0.05,0,0,0.05,24,0)" xlink:href="#aY"/><use transform="matrix(0.05,0,0,0.05,34,0)" xlink:href="#be"/><use transform="matrix(0.05,0,0,0.05,39.95,0)" xlink:href="#aW"/><use transform="matrix(0.05,0,0,0.05,49.95,0)" xlink:href="#bh"/><use transform="matrix(0.05,0,0,0.05,54.95,0)" xlink:href="#bg"/><use transform="matrix(0.05,0,0,0.05,58.900000000000006,0)" xlink:href="#bd"/><use transform="matrix(0.05,0,0,0.05,68.9,0)" xlink:href="#bb"/></g><g id="as"><use transform="matrix(0.05,0,0,0.05,0,0)" xlink:href="#bY"/><use transform="matrix(0.05,0,0,0.05,10.3,0)" xlink:href="#bg"/><use transform="matrix(0.05,0,0,0.05,14.25,0)" xlink:href="#aX"/><use transform="matrix(0.05,0,0,0.05,29.200000000000003,0)" xlink:href="#aY"/><use transform="matrix(0.05,0,0,0.05,39.2,0)" xlink:href="#aZ"/></g><use transform="matrix(0.05,0,0,0.05,0,0)" xlink:href="#ce" id="at"/><g id="au"><use transform="matrix(0.05,0,0,0.05,0,0)" xlink:href="#bw"/><use transform="matrix(0.05,0,0,0.05,10,0)" xlink:href="#bd"/><use transform="matrix(0.05,0,0,0.05,20,0)" xlink:href="#bk"/><use transform="matrix(0.05,0,0,0.05,30,0)" xlink:href="#be"/><use transform="matrix(0.05,0,0,0.05,35.95,0)" xlink:href="#bi"/></g><g id="av"><use transform="matrix(0.05,0,0,0.05,0,0)" xlink:href="#bY"/><use transform="matrix(0.05,0,0,0.05,10.3,0)" xlink:href="#be"/><use transform="matrix(0.05,0,0,0.05,16.25,0)" xlink:href="#aW"/><use transform="matrix(0.05,0,0,0.05,26.25,0)" xlink:href="#bb"/><use transform="matrix(0.05,0,0,0.05,36.25,0)" xlink:href="#bi"/><use transform="matrix(0.05,0,0,0.05,45.25,0)" xlink:href="#aX"/><use transform="matrix(0.05,0,0,0.05,60.2,0)" xlink:href="#bg"/><use transform="matrix(0.05,0,0,0.05,64.15,0)" xlink:href="#bi"/><use transform="matrix(0.05,0,0,0.05,73.15,0)" xlink:href="#bi"/><use transform="matrix(0.05,0,0,0.05,82.15,0)" xlink:href="#bg"/><use transform="matrix(0.05,0,0,0.05,86.10000000000001,0)" xlink:href="#bd"/><use transform="matrix(0.05,0,0,0.05,96.10000000000001,0)" xlink:href="#bb"/></g><g id="aw"><use transform="matrix(0.05,0,0,0.05,0,0)" xlink:href="#ba"/><use transform="matrix(0.05,0,0,0.05,5,0)" xlink:href="#bb"/><use transform="matrix(0.05,0,0,0.05,15,0)" xlink:href="#bh"/><use transform="matrix(0.05,0,0,0.05,20,0)" xlink:href="#aY"/><use transform="matrix(0.05,0,0,0.05,30,0)" xlink:href="#be"/><use transform="matrix(0.05,0,0,0.05,35.95,0)" xlink:href="#ca"/><use transform="matrix(0.05,0,0,0.05,44.95,0)" xlink:href="#aW"/><use transform="matrix(0.05,0,0,0.05,54.95,0)" xlink:href="#bx"/><use transform="matrix(0.05,0,0,0.05,58.900000000000006,0)" xlink:href="#aZ"/></g><g id="ax"><use transform="matrix(0.05,0,0,0.05,0,0)" xlink:href="#bL"/><use transform="matrix(0.05,0,0,0.05,12.950000000000001,0)" xlink:href="#bn"/><use transform="matrix(0.05,0,0,0.05,21.950000000000003,0)" xlink:href="#bb"/><use transform="matrix(0.05,0,0,0.05,31.950000000000003,0)" xlink:href="#aW"/><use transform="matrix(0.05,0,0,0.05,41.95,0)" xlink:href="#aX"/><use transform="matrix(0.05,0,0,0.05,56.900000000000006,0)" xlink:href="#bg"/><use transform="matrix(0.05,0,0,0.05,60.85,0)" xlink:href="#bf"/><use transform="matrix(0.05,0,0,0.05,69.85000000000001,0)" xlink:href="#aW"/><use transform="matrix(0.05,0,0,0.05,79.85000000000001,0)" xlink:href="#bx"/><use transform="matrix(0.05,0,0,0.05,83.80000000000001,0)" xlink:href="#bx"/><use transform="matrix(0.05,0,0,0.05,87.75000000000001,0)" xlink:href="#bn"/></g><path d="M24-231v-30h32v30H24zM-9 49c24 4 33-6 33-30v-209h32V24c2 40-23 58-65 49V49" id="cj"/><g id="ay"><use transform="matrix(0.05,0,0,0.05,0,0)" xlink:href="#aW"/><use transform="matrix(0.05,0,0,0.05,10,0)" xlink:href="#bc"/><use transform="matrix(0.05,0,0,0.05,20,0)" xlink:href="#cj"/><use transform="matrix(0.05,0,0,0.05,23.95,0)" xlink:href="#bk"/><use transform="matrix(0.05,0,0,0.05,33.95,0)" xlink:href="#bi"/><use transform="matrix(0.05,0,0,0.05,42.95,0)" xlink:href="#bh"/><use transform="matrix(0.05,0,0,0.05,47.95,0)" xlink:href="#bi"/></g><path d="M206 0h-36l-40-164L89 0H53L-1-190h32L70-26l43-164h34l41 164 42-164h31" id="ck"/><g id="az"><use transform="matrix(0.05,0,0,0.05,0,0)" xlink:href="#bl"/><use transform="matrix(0.05,0,0,0.05,10,0)" xlink:href="#aY"/><use transform="matrix(0.05,0,0,0.05,20,0)" xlink:href="#bh"/><use transform="matrix(0.05,0,0,0.05,25,0)" xlink:href="#ck"/><use transform="matrix(0.05,0,0,0.05,37.95,0)" xlink:href="#aY"/><use transform="matrix(0.05,0,0,0.05,47.95,0)" xlink:href="#aY"/><use transform="matrix(0.05,0,0,0.05,57.95,0)" xlink:href="#bb"/></g><g id="aA"><use transform="matrix(0.05,0,0,0.05,0,0)" xlink:href="#aW"/><use transform="matrix(0.05,0,0,0.05,10,0)" xlink:href="#bb"/><use transform="matrix(0.05,0,0,0.05,20,0)" xlink:href="#bc"/></g><g id="aB"><use transform="matrix(0.05,0,0,0.05,0,0)" xlink:href="#bV"/><use transform="matrix(0.05,0,0,0.05,10,0)" xlink:href="#ce"/></g><g id="aC"><use transform="matrix(0.05,0,0,0.05,0,0)" xlink:href="#aX"/><use transform="matrix(0.05,0,0,0.05,14.950000000000001,0)" xlink:href="#bg"/><use transform="matrix(0.05,0,0,0.05,18.900000000000002,0)" xlink:href="#bb"/><use transform="matrix(0.05,0,0,0.05,28.900000000000002,0)" xlink:href="#bk"/><use transform="matrix(0.05,0,0,0.05,38.900000000000006,0)" xlink:href="#bh"/><use transform="matrix(0.05,0,0,0.05,43.900000000000006,0)" xlink:href="#aY"/><use transform="matrix(0.05,0,0,0.05,53.900000000000006,0)" xlink:href="#bi"/></g><g id="aD"><use transform="matrix(0.05,0,0,0.05,0,0)" xlink:href="#bc"/><use transform="matrix(0.05,0,0,0.05,10,0)" xlink:href="#aY"/><use transform="matrix(0.05,0,0,0.05,20,0)" xlink:href="#bZ"/><use transform="matrix(0.05,0,0,0.05,30,0)" xlink:href="#aY"/><use transform="matrix(0.05,0,0,0.05,40,0)" xlink:href="#bb"/><use transform="matrix(0.05,0,0,0.05,50,0)" xlink:href="#bc"/><use transform="matrix(0.05,0,0,0.05,60,0)" xlink:href="#aY"/><use transform="matrix(0.05,0,0,0.05,70,0)" xlink:href="#bb"/><use transform="matrix(0.05,0,0,0.05,80,0)" xlink:href="#bh"/></g><g id="aE"><use transform="matrix(0.05,0,0,0.05,0,0)" xlink:href="#bd"/><use transform="matrix(0.05,0,0,0.05,10,0)" xlink:href="#bb"/></g><g id="aF"><use transform="matrix(0.05,0,0,0.05,0,0)" xlink:href="#bZ"/><use transform="matrix(0.05,0,0,0.05,10,0)" xlink:href="#bd"/><use transform="matrix(0.05,0,0,0.05,20,0)" xlink:href="#ck"/><use transform="matrix(0.05,0,0,0.05,32.95,0)" xlink:href="#aY"/><use transform="matrix(0.05,0,0,0.05,42.95,0)" xlink:href="#be"/></g><g id="aG"><use transform="matrix(0.05,0,0,0.05,0,0)" xlink:href="#bi"/><use transform="matrix(0.05,0,0,0.05,9,0)" xlink:href="#bd"/><use transform="matrix(0.05,0,0,0.05,19,0)" xlink:href="#bk"/><use transform="matrix(0.05,0,0,0.05,29,0)" xlink:href="#be"/><use transform="matrix(0.05,0,0,0.05,34.95,0)" xlink:href="#bf"/><use transform="matrix(0.05,0,0,0.05,43.95,0)" xlink:href="#aY"/></g><g id="aH"><use transform="matrix(0.05,0,0,0.05,0,0)" xlink:href="#bq"/><use transform="matrix(0.05,0,0,0.05,12,0)" xlink:href="#ch"/><use transform="matrix(0.05,0,0,0.05,22.950000000000003,0)" xlink:href="#aN"/><use transform="matrix(0.05,0,0,0.05,32.95,0)" xlink:href="#aO"/><use transform="matrix(0.05,0,0,0.05,38.900000000000006,0)" xlink:href="#bE"/><use transform="matrix(0.05,0,0,0.05,43.900000000000006,0)" xlink:href="#aN"/><use transform="matrix(0.05,0,0,0.05,53.900000000000006,0)" xlink:href="#bH"/></g><path d="M126-127c33 6 58 20 58 59 0 88-139 92-164 29-3-8-5-16-6-25l32-3c6 27 21 44 54 44 32 0 52-15 52-46 0-38-36-46-79-43v-28c39 1 72-4 72-42 0-27-17-43-46-43-28 0-47 15-49 41l-32-3c6-42 35-63 81-64 48-1 79 21 79 65 0 36-21 52-52 59" id="cl"/><g id="aI"><use transform="matrix(0.05,0,0,0.05,0,0)" xlink:href="#cl"/><use transform="matrix(0.05,0,0,0.05,10,0)" xlink:href="#bT"/></g><g id="aJ"><use transform="matrix(0.05,0,0,0.05,0,0)" xlink:href="#aX"/><use transform="matrix(0.05,0,0,0.05,14.950000000000001,0)" xlink:href="#aY"/><use transform="matrix(0.05,0,0,0.05,24.950000000000003,0)" xlink:href="#bh"/><use transform="matrix(0.05,0,0,0.05,29.950000000000003,0)" xlink:href="#aY"/><use transform="matrix(0.05,0,0,0.05,39.95,0)" xlink:href="#be"/><use transform="matrix(0.05,0,0,0.05,45.900000000000006,0)" xlink:href="#bi"/></g><g id="aK"><use transform="matrix(0.05,0,0,0.05,0,0)" xlink:href="#bu"/><use transform="matrix(0.05,0,0,0.05,12.950000000000001,0)" xlink:href="#bk"/><use transform="matrix(0.05,0,0,0.05,22.950000000000003,0)" xlink:href="#aX"/><use transform="matrix(0.05,0,0,0.05,37.900000000000006,0)" xlink:href="#bg"/><use transform="matrix(0.05,0,0,0.05,41.85000000000001,0)" xlink:href="#bc"/><use transform="matrix(0.05,0,0,0.05,51.85,0)" xlink:href="#bg"/><use transform="matrix(0.05,0,0,0.05,55.80000000000001,0)" xlink:href="#bh"/><use transform="matrix(0.05,0,0,0.05,60.80000000000001,0)" xlink:href="#bn"/></g><g id="aL"><use transform="matrix(0.05,0,0,0.05,0,0)" xlink:href="#bY"/><use transform="matrix(0.05,0,0,0.05,8.950000000000001,0)" xlink:href="#aY"/><use transform="matrix(0.05,0,0,0.05,18.950000000000003,0)" xlink:href="#aX"/><use transform="matrix(0.05,0,0,0.05,33.900000000000006,0)" xlink:href="#bZ"/><use transform="matrix(0.05,0,0,0.05,43.900000000000006,0)" xlink:href="#aY"/><use transform="matrix(0.05,0,0,0.05,53.900000000000006,0)" xlink:href="#be"/><use transform="matrix(0.05,0,0,0.05,59.85,0)" xlink:href="#aW"/><use transform="matrix(0.05,0,0,0.05,69.85000000000001,0)" xlink:href="#bh"/><use transform="matrix(0.05,0,0,0.05,74.85000000000001,0)" xlink:href="#bk"/><use transform="matrix(0.05,0,0,0.05,84.85000000000001,0)" xlink:href="#be"/><use transform="matrix(0.05,0,0,0.05,90.80000000000001,0)" xlink:href="#aY"/></g></defs></g></svg>